<mxfile host="app.diagrams.net" modified="2024-02-20T10:17:57.771Z" agent="Mozilla/5.0 (Windows NT 10.0; Win64; x64) AppleWebKit/537.36 (KHTML, like Gecko) Chrome/121.0.0.0 Safari/537.36" etag="GFysOd6hKZzoUaPAGDHH" version="23.1.5" type="device">
  <diagram id="R2lEEEUBdFMjLlhIrx00" name="Page-1">
    <mxGraphModel dx="3125" dy="1879" grid="1" gridSize="10" guides="0" tooltips="1" connect="1" arrows="1" fold="1" page="1" pageScale="1" pageWidth="1100" pageHeight="850" background="#FFFFFF" math="0" shadow="0" extFonts="Permanent Marker^https://fonts.googleapis.com/css?family=Permanent+Marker">
      <root>
        <mxCell id="0" />
        <mxCell id="1" parent="0" />
        <mxCell id="sjSc6PjK9yt8h6AtYTrf-2" value="ITI" style="rounded=1;whiteSpace=wrap;html=1;labelBackgroundColor=none;fillColor=#B0E3E6;strokeColor=#000000;fontColor=#393C56;" parent="1" vertex="1">
          <mxGeometry x="400" y="165" width="90" height="60" as="geometry" />
        </mxCell>
        <mxCell id="AFVBEa2lu6-2GRhfA7ZJ-173" style="rounded=0;orthogonalLoop=1;jettySize=auto;html=1;endArrow=ERone;endFill=0;startArrow=none;startFill=0;labelBackgroundColor=none;fontColor=default;strokeColor=#000000;shape=link;exitX=0;exitY=0.5;exitDx=0;exitDy=0;" parent="1" source="BMZOOyI94QuiM5lB1iNM-34" edge="1">
          <mxGeometry relative="1" as="geometry">
            <mxPoint x="170" y="310" as="targetPoint" />
            <mxPoint x="130" as="sourcePoint" />
            <Array as="points">
              <mxPoint x="-80" y="-90" />
              <mxPoint x="-80" y="280" />
              <mxPoint x="170" y="280" />
            </Array>
          </mxGeometry>
        </mxCell>
        <mxCell id="A4VxWE5l_d1fXwFR-Y5C-1" style="rounded=0;orthogonalLoop=1;jettySize=auto;html=1;entryX=0;entryY=0.5;entryDx=0;entryDy=0;strokeColor=#000000;fontColor=default;fillColor=#F2CC8F;exitX=0.984;exitY=0.874;exitDx=0;exitDy=0;endArrow=none;endFill=0;exitPerimeter=0;labelBackgroundColor=none;" parent="1" source="sjSc6PjK9yt8h6AtYTrf-3" target="K2cYPbhZRInxZFROjlgI-1" edge="1">
          <mxGeometry relative="1" as="geometry" />
        </mxCell>
        <mxCell id="sjSc6PjK9yt8h6AtYTrf-3" value="Instructors" style="rounded=1;whiteSpace=wrap;html=1;labelBackgroundColor=none;fillColor=#B0E3E6;strokeColor=#000000;fontColor=#393C56;" parent="1" vertex="1">
          <mxGeometry x="790" y="90" width="90" height="60" as="geometry" />
        </mxCell>
        <mxCell id="BMZOOyI94QuiM5lB1iNM-8" style="rounded=0;orthogonalLoop=1;jettySize=auto;html=1;strokeColor=#000000;elbow=vertical;endArrow=none;endFill=0;entryX=1;entryY=0.5;entryDx=0;entryDy=0;exitX=0.25;exitY=1;exitDx=0;exitDy=0;labelBackgroundColor=none;fontColor=default;" parent="1" source="sjSc6PjK9yt8h6AtYTrf-4" target="AFVBEa2lu6-2GRhfA7ZJ-161" edge="1">
          <mxGeometry relative="1" as="geometry">
            <mxPoint x="640" y="500" as="sourcePoint" />
            <mxPoint x="620" y="725" as="targetPoint" />
            <Array as="points">
              <mxPoint x="863" y="580" />
              <mxPoint x="840" y="580" />
              <mxPoint x="800" y="560" />
              <mxPoint x="750" y="560" />
              <mxPoint x="680" y="650" />
              <mxPoint x="680" y="705" />
              <mxPoint x="550" y="705" />
            </Array>
          </mxGeometry>
        </mxCell>
        <mxCell id="XogJSWs-fFkcAVBSwePA-42" style="rounded=0;orthogonalLoop=1;jettySize=auto;html=1;entryX=0.75;entryY=1;entryDx=0;entryDy=0;endArrow=none;endFill=0;exitX=0.5;exitY=0;exitDx=0;exitDy=0;labelBackgroundColor=none;strokeColor=#000000;fontColor=default;" parent="1" source="XogJSWs-fFkcAVBSwePA-44" target="sjSc6PjK9yt8h6AtYTrf-5" edge="1">
          <mxGeometry relative="1" as="geometry">
            <Array as="points">
              <mxPoint x="570" y="490" />
              <mxPoint x="570" y="400" />
              <mxPoint x="480" y="240" />
              <mxPoint x="280" y="240" />
              <mxPoint x="220" y="180" />
            </Array>
          </mxGeometry>
        </mxCell>
        <mxCell id="M1tWOv5ybadmFB81L19h-3" style="rounded=0;orthogonalLoop=1;jettySize=auto;html=1;entryX=1;entryY=0.5;entryDx=0;entryDy=0;exitX=0;exitY=0.5;exitDx=0;exitDy=0;shape=link;strokeColor=#000000;labelBackgroundColor=none;fontColor=default;" parent="1" source="M1tWOv5ybadmFB81L19h-5" target="sjSc6PjK9yt8h6AtYTrf-6" edge="1">
          <mxGeometry relative="1" as="geometry">
            <Array as="points">
              <mxPoint x="540" y="595" />
              <mxPoint x="510" y="570" />
              <mxPoint x="510" y="495" />
            </Array>
          </mxGeometry>
        </mxCell>
        <mxCell id="sjSc6PjK9yt8h6AtYTrf-4" value="Students" style="rounded=1;whiteSpace=wrap;html=1;labelBackgroundColor=none;fillColor=#B0E3E6;strokeColor=#000000;fontColor=#393C56;" parent="1" vertex="1">
          <mxGeometry x="840" y="500" width="90" height="60" as="geometry" />
        </mxCell>
        <mxCell id="sjSc6PjK9yt8h6AtYTrf-5" value="Tracks" style="rounded=1;whiteSpace=wrap;html=1;labelBackgroundColor=none;fillColor=#B0E3E6;strokeColor=#000000;fontColor=#393C56;" parent="1" vertex="1">
          <mxGeometry x="150" y="35" width="90" height="60" as="geometry" />
        </mxCell>
        <mxCell id="sjSc6PjK9yt8h6AtYTrf-6" value="Exams" style="rounded=1;whiteSpace=wrap;html=1;labelBackgroundColor=none;fillColor=#B0E3E6;strokeColor=#000000;fontColor=#393C56;" parent="1" vertex="1">
          <mxGeometry x="395" y="465" width="90" height="60" as="geometry" />
        </mxCell>
        <mxCell id="AFVBEa2lu6-2GRhfA7ZJ-151" style="rounded=0;orthogonalLoop=1;jettySize=auto;html=1;entryX=0;entryY=0.5;entryDx=0;entryDy=0;endArrow=ERoneToMany;endFill=0;startArrow=none;startFill=0;exitX=1;exitY=0.5;exitDx=0;exitDy=0;labelBackgroundColor=none;fontColor=default;strokeColor=#000000;shape=link;" parent="1" source="AFVBEa2lu6-2GRhfA7ZJ-152" target="sjSc6PjK9yt8h6AtYTrf-6" edge="1">
          <mxGeometry relative="1" as="geometry" />
        </mxCell>
        <mxCell id="A4VxWE5l_d1fXwFR-Y5C-3" style="rounded=0;orthogonalLoop=1;jettySize=auto;html=1;entryX=0.5;entryY=0;entryDx=0;entryDy=0;strokeColor=#000000;fontColor=default;fillColor=#F2CC8F;exitX=0.5;exitY=1;exitDx=0;exitDy=0;endArrow=none;endFill=0;shape=link;labelBackgroundColor=none;" parent="1" source="A4VxWE5l_d1fXwFR-Y5C-5" target="sjSc6PjK9yt8h6AtYTrf-8" edge="1">
          <mxGeometry relative="1" as="geometry">
            <mxPoint x="180" y="370" as="sourcePoint" />
            <Array as="points">
              <mxPoint y="640" />
              <mxPoint x="225" y="640" />
            </Array>
          </mxGeometry>
        </mxCell>
        <mxCell id="sjSc6PjK9yt8h6AtYTrf-7" value="Courses" style="rounded=1;whiteSpace=wrap;html=1;labelBackgroundColor=none;fillColor=#B0E3E6;strokeColor=#000000;fontColor=#393C56;" parent="1" vertex="1">
          <mxGeometry x="150" y="310" width="90" height="60" as="geometry" />
        </mxCell>
        <mxCell id="sjSc6PjK9yt8h6AtYTrf-8" value="Questions" style="rounded=1;whiteSpace=wrap;html=1;labelBackgroundColor=none;fillColor=#B0E3E6;strokeColor=#000000;fontColor=#393C56;" parent="1" vertex="1">
          <mxGeometry x="180" y="655" width="90" height="60" as="geometry" />
        </mxCell>
        <mxCell id="AFVBEa2lu6-2GRhfA7ZJ-4" value="" style="edgeStyle=elbowEdgeStyle;fontSize=12;html=1;endArrow=ERoneToMany;startArrow=none;rounded=0;exitX=1;exitY=0.5;exitDx=0;exitDy=0;entryX=0;entryY=0.75;entryDx=0;entryDy=0;startFill=0;labelBackgroundColor=none;fontColor=default;strokeColor=#000000;shape=link;" parent="1" source="AFVBEa2lu6-2GRhfA7ZJ-146" target="sjSc6PjK9yt8h6AtYTrf-3" edge="1">
          <mxGeometry width="100" height="100" relative="1" as="geometry">
            <mxPoint x="370" y="150" as="sourcePoint" />
            <mxPoint x="470" y="50" as="targetPoint" />
          </mxGeometry>
        </mxCell>
        <mxCell id="AFVBEa2lu6-2GRhfA7ZJ-5" value="" style="fontSize=12;html=1;endArrow=ERoneToMany;startArrow=none;rounded=0;exitX=1;exitY=0.5;exitDx=0;exitDy=0;entryX=0;entryY=0.25;entryDx=0;entryDy=0;startFill=0;labelBackgroundColor=none;fontColor=default;strokeColor=#000000;shape=link;elbow=vertical;" parent="1" source="AFVBEa2lu6-2GRhfA7ZJ-149" target="sjSc6PjK9yt8h6AtYTrf-4" edge="1">
          <mxGeometry width="100" height="100" relative="1" as="geometry">
            <mxPoint x="410" y="123.99000000000002" as="sourcePoint" />
            <mxPoint x="639.28" y="276.01" as="targetPoint" />
            <Array as="points">
              <mxPoint x="720" y="478" />
              <mxPoint x="770" y="515" />
            </Array>
          </mxGeometry>
        </mxCell>
        <mxCell id="AFVBEa2lu6-2GRhfA7ZJ-6" value="&lt;font style=&quot;font-size: 11px;&quot;&gt;&lt;u&gt;BranchID&lt;/u&gt;&lt;/font&gt;" style="ellipse;whiteSpace=wrap;html=1;labelBackgroundColor=none;fillColor=#F8CECC;strokeColor=#000000;fontColor=#393C56;" parent="1" vertex="1">
          <mxGeometry x="340" y="90" width="60" height="40" as="geometry" />
        </mxCell>
        <mxCell id="AFVBEa2lu6-2GRhfA7ZJ-7" value="&lt;font style=&quot;font-size: 11px;&quot;&gt;Branch&lt;br&gt;Name&lt;/font&gt;" style="ellipse;whiteSpace=wrap;html=1;labelBackgroundColor=none;fillColor=#F8CECC;strokeColor=#000000;fontColor=#393C56;" parent="1" vertex="1">
          <mxGeometry x="420" y="20" width="60" height="40" as="geometry" />
        </mxCell>
        <mxCell id="AFVBEa2lu6-2GRhfA7ZJ-8" value="&lt;font style=&quot;font-size: 11px;&quot;&gt;Branch&lt;br&gt;Location&lt;/font&gt;" style="ellipse;whiteSpace=wrap;html=1;labelBackgroundColor=none;fillColor=#F8CECC;strokeColor=#000000;fontColor=#393C56;" parent="1" vertex="1">
          <mxGeometry x="370" y="50" width="60" height="40" as="geometry" />
        </mxCell>
        <mxCell id="AFVBEa2lu6-2GRhfA7ZJ-9" value="&lt;font style=&quot;font-size: 11px;&quot;&gt;Founded-Date&lt;/font&gt;" style="ellipse;whiteSpace=wrap;html=1;labelBackgroundColor=none;fillColor=#F8CECC;strokeColor=#000000;fontColor=#393C56;" parent="1" vertex="1">
          <mxGeometry x="470" y="50" width="60" height="40" as="geometry" />
        </mxCell>
        <mxCell id="AFVBEa2lu6-2GRhfA7ZJ-10" value="" style="endArrow=none;html=1;rounded=0;exitX=1;exitY=1;exitDx=0;exitDy=0;labelBackgroundColor=none;fontColor=default;strokeColor=#000000;entryX=0.358;entryY=0.01;entryDx=0;entryDy=0;entryPerimeter=0;" parent="1" source="AFVBEa2lu6-2GRhfA7ZJ-6" target="sjSc6PjK9yt8h6AtYTrf-2" edge="1">
          <mxGeometry width="50" height="50" relative="1" as="geometry">
            <mxPoint x="260" y="140" as="sourcePoint" />
            <mxPoint x="410" y="160" as="targetPoint" />
          </mxGeometry>
        </mxCell>
        <mxCell id="AFVBEa2lu6-2GRhfA7ZJ-11" value="" style="endArrow=none;html=1;rounded=0;entryX=0.752;entryY=0.962;entryDx=0;entryDy=0;entryPerimeter=0;labelBackgroundColor=none;fontColor=default;strokeColor=#000000;exitX=0.5;exitY=0;exitDx=0;exitDy=0;" parent="1" source="sjSc6PjK9yt8h6AtYTrf-2" target="AFVBEa2lu6-2GRhfA7ZJ-8" edge="1">
          <mxGeometry width="50" height="50" relative="1" as="geometry">
            <mxPoint x="300" y="110" as="sourcePoint" />
            <mxPoint x="350" y="60" as="targetPoint" />
          </mxGeometry>
        </mxCell>
        <mxCell id="AFVBEa2lu6-2GRhfA7ZJ-12" value="" style="endArrow=none;html=1;rounded=0;entryX=0.5;entryY=1;entryDx=0;entryDy=0;labelBackgroundColor=none;fontColor=default;strokeColor=#000000;exitX=0.633;exitY=-0.017;exitDx=0;exitDy=0;exitPerimeter=0;" parent="1" source="sjSc6PjK9yt8h6AtYTrf-2" target="AFVBEa2lu6-2GRhfA7ZJ-7" edge="1">
          <mxGeometry width="50" height="50" relative="1" as="geometry">
            <mxPoint x="460" y="160" as="sourcePoint" />
            <mxPoint x="430" y="60" as="targetPoint" />
          </mxGeometry>
        </mxCell>
        <mxCell id="AFVBEa2lu6-2GRhfA7ZJ-13" value="" style="endArrow=none;html=1;rounded=0;exitX=0.75;exitY=0;exitDx=0;exitDy=0;labelBackgroundColor=none;fontColor=default;strokeColor=#000000;entryX=0.38;entryY=1.008;entryDx=0;entryDy=0;entryPerimeter=0;" parent="1" source="sjSc6PjK9yt8h6AtYTrf-2" target="AFVBEa2lu6-2GRhfA7ZJ-9" edge="1">
          <mxGeometry width="50" height="50" relative="1" as="geometry">
            <mxPoint x="410" y="110" as="sourcePoint" />
            <mxPoint x="480" y="120" as="targetPoint" />
          </mxGeometry>
        </mxCell>
        <mxCell id="AFVBEa2lu6-2GRhfA7ZJ-16" value="" style="fontSize=12;html=1;endArrow=ERoneToMany;startArrow=none;rounded=0;exitX=0;exitY=0.5;exitDx=0;exitDy=0;entryX=1;entryY=0.75;entryDx=0;entryDy=0;startFill=0;edgeStyle=elbowEdgeStyle;labelBackgroundColor=none;fontColor=default;strokeColor=#000000;shape=link;" parent="1" source="AFVBEa2lu6-2GRhfA7ZJ-143" target="sjSc6PjK9yt8h6AtYTrf-5" edge="1">
          <mxGeometry width="100" height="100" relative="1" as="geometry">
            <mxPoint x="40" y="220" as="sourcePoint" />
            <mxPoint x="200" y="190" as="targetPoint" />
          </mxGeometry>
        </mxCell>
        <mxCell id="XogJSWs-fFkcAVBSwePA-8" style="rounded=0;orthogonalLoop=1;jettySize=auto;html=1;entryX=0;entryY=0.5;entryDx=0;entryDy=0;endArrow=none;endFill=0;labelBackgroundColor=none;strokeColor=#000000;fontColor=default;" parent="1" source="AFVBEa2lu6-2GRhfA7ZJ-17" target="sjSc6PjK9yt8h6AtYTrf-5" edge="1">
          <mxGeometry relative="1" as="geometry" />
        </mxCell>
        <mxCell id="AFVBEa2lu6-2GRhfA7ZJ-17" value="&lt;font size=&quot;1&quot; style=&quot;&quot;&gt;&lt;u style=&quot;font-size: 11px;&quot;&gt;Track-ID&lt;/u&gt;&lt;/font&gt;" style="ellipse;whiteSpace=wrap;html=1;labelBackgroundColor=none;fillColor=#F8CECC;strokeColor=#000000;fontColor=#393C56;" parent="1" vertex="1">
          <mxGeometry x="50" y="5" width="60" height="40" as="geometry" />
        </mxCell>
        <mxCell id="XogJSWs-fFkcAVBSwePA-7" style="rounded=0;orthogonalLoop=1;jettySize=auto;html=1;entryX=0;entryY=0.5;entryDx=0;entryDy=0;endArrow=none;endFill=0;labelBackgroundColor=none;strokeColor=#000000;fontColor=default;" parent="1" source="AFVBEa2lu6-2GRhfA7ZJ-18" target="sjSc6PjK9yt8h6AtYTrf-5" edge="1">
          <mxGeometry relative="1" as="geometry" />
        </mxCell>
        <mxCell id="AFVBEa2lu6-2GRhfA7ZJ-18" value="&lt;font style=&quot;font-size: 11px;&quot;&gt;Track&lt;br&gt;Name&lt;br&gt;&lt;/font&gt;" style="ellipse;whiteSpace=wrap;html=1;labelBackgroundColor=none;fillColor=#F8CECC;strokeColor=#000000;fontColor=#393C56;" parent="1" vertex="1">
          <mxGeometry y="30" width="60" height="40" as="geometry" />
        </mxCell>
        <mxCell id="AFVBEa2lu6-2GRhfA7ZJ-19" value="&lt;font style=&quot;font-size: 11px;&quot;&gt;Intake-No&lt;/font&gt;" style="ellipse;whiteSpace=wrap;html=1;labelBackgroundColor=none;fillColor=#F8CECC;strokeColor=#000000;fontColor=#393C56;" parent="1" vertex="1">
          <mxGeometry x="1030" y="950" width="60" height="40" as="geometry" />
        </mxCell>
        <mxCell id="XogJSWs-fFkcAVBSwePA-6" style="rounded=0;orthogonalLoop=1;jettySize=auto;html=1;entryX=0;entryY=0.5;entryDx=0;entryDy=0;endArrow=none;endFill=0;labelBackgroundColor=none;strokeColor=#000000;fontColor=default;" parent="1" source="AFVBEa2lu6-2GRhfA7ZJ-21" target="sjSc6PjK9yt8h6AtYTrf-5" edge="1">
          <mxGeometry relative="1" as="geometry" />
        </mxCell>
        <mxCell id="AFVBEa2lu6-2GRhfA7ZJ-21" value="&lt;font style=&quot;font-size: 11px;&quot;&gt;Track-Duration&lt;/font&gt;" style="ellipse;whiteSpace=wrap;html=1;labelBackgroundColor=none;fillColor=#F8CECC;strokeColor=#000000;fontColor=#393C56;" parent="1" vertex="1">
          <mxGeometry y="75" width="60" height="40" as="geometry" />
        </mxCell>
        <mxCell id="AFVBEa2lu6-2GRhfA7ZJ-27" value="" style="fontSize=12;html=1;endArrow=none;startArrow=none;rounded=0;entryX=0.5;entryY=1;entryDx=0;entryDy=0;exitX=0.5;exitY=0;exitDx=0;exitDy=0;startFill=0;labelBackgroundColor=none;fontColor=default;strokeColor=#000000;endFill=0;shape=link;" parent="1" source="AFVBEa2lu6-2GRhfA7ZJ-141" target="sjSc6PjK9yt8h6AtYTrf-5" edge="1">
          <mxGeometry width="100" height="100" relative="1" as="geometry">
            <mxPoint x="250" y="460" as="sourcePoint" />
            <mxPoint x="240.00000000000009" y="350" as="targetPoint" />
            <Array as="points" />
          </mxGeometry>
        </mxCell>
        <mxCell id="AFVBEa2lu6-2GRhfA7ZJ-29" value="&lt;u style=&quot;&quot;&gt;&lt;font style=&quot;font-size: 11px;&quot;&gt;Course-ID&lt;/font&gt;&lt;/u&gt;" style="ellipse;whiteSpace=wrap;html=1;labelBackgroundColor=none;fillColor=#F8CECC;strokeColor=#000000;fontColor=#393C56;" parent="1" vertex="1">
          <mxGeometry x="80" y="287.5" width="60" height="40" as="geometry" />
        </mxCell>
        <mxCell id="AFVBEa2lu6-2GRhfA7ZJ-30" value="&lt;span style=&quot;font-size: 11px;&quot;&gt;Course&lt;br&gt;Name&lt;br&gt;&lt;/span&gt;" style="ellipse;whiteSpace=wrap;html=1;labelBackgroundColor=none;fillColor=#F8CECC;strokeColor=#000000;fontColor=#393C56;" parent="1" vertex="1">
          <mxGeometry x="10" y="297.5" width="60" height="40" as="geometry" />
        </mxCell>
        <mxCell id="AFVBEa2lu6-2GRhfA7ZJ-31" value="&lt;font style=&quot;font-size: 11px;&quot;&gt;C-Status&lt;/font&gt;" style="ellipse;whiteSpace=wrap;html=1;labelBackgroundColor=none;fillColor=#F8CECC;strokeColor=#000000;fontColor=#393C56;" parent="1" vertex="1">
          <mxGeometry y="340" width="60" height="40" as="geometry" />
        </mxCell>
        <mxCell id="AFVBEa2lu6-2GRhfA7ZJ-32" value="&lt;font style=&quot;font-size: 11px;&quot;&gt;C-Duration&lt;/font&gt;" style="ellipse;whiteSpace=wrap;html=1;labelBackgroundColor=none;fillColor=#F8CECC;strokeColor=#000000;fontColor=#393C56;" parent="1" vertex="1">
          <mxGeometry x="30" y="377.5" width="60" height="40" as="geometry" />
        </mxCell>
        <mxCell id="AFVBEa2lu6-2GRhfA7ZJ-33" value="" style="endArrow=none;html=1;rounded=0;entryX=-0.011;entryY=0.9;entryDx=0;entryDy=0;exitX=1;exitY=0;exitDx=0;exitDy=0;labelBackgroundColor=none;fontColor=default;strokeColor=#000000;entryPerimeter=0;" parent="1" source="AFVBEa2lu6-2GRhfA7ZJ-32" target="sjSc6PjK9yt8h6AtYTrf-7" edge="1">
          <mxGeometry width="50" height="50" relative="1" as="geometry">
            <mxPoint x="145" y="545" as="sourcePoint" />
            <mxPoint x="195" y="495" as="targetPoint" />
          </mxGeometry>
        </mxCell>
        <mxCell id="AFVBEa2lu6-2GRhfA7ZJ-34" value="" style="endArrow=none;html=1;rounded=0;entryX=0;entryY=0.75;entryDx=0;entryDy=0;labelBackgroundColor=none;fontColor=default;strokeColor=#000000;" parent="1" source="AFVBEa2lu6-2GRhfA7ZJ-31" target="sjSc6PjK9yt8h6AtYTrf-7" edge="1">
          <mxGeometry width="50" height="50" relative="1" as="geometry">
            <mxPoint x="80" y="360" as="sourcePoint" />
            <mxPoint x="110" y="475" as="targetPoint" />
          </mxGeometry>
        </mxCell>
        <mxCell id="AFVBEa2lu6-2GRhfA7ZJ-35" value="" style="endArrow=none;html=1;rounded=0;entryX=-0.013;entryY=0.629;entryDx=0;entryDy=0;entryPerimeter=0;labelBackgroundColor=none;fontColor=default;strokeColor=#000000;exitX=0.933;exitY=0.688;exitDx=0;exitDy=0;exitPerimeter=0;" parent="1" source="AFVBEa2lu6-2GRhfA7ZJ-30" target="sjSc6PjK9yt8h6AtYTrf-7" edge="1">
          <mxGeometry width="50" height="50" relative="1" as="geometry">
            <mxPoint x="70" y="340" as="sourcePoint" />
            <mxPoint x="130" y="450" as="targetPoint" />
          </mxGeometry>
        </mxCell>
        <mxCell id="AFVBEa2lu6-2GRhfA7ZJ-36" value="" style="endArrow=none;html=1;rounded=0;exitX=1;exitY=1;exitDx=0;exitDy=0;entryX=0;entryY=0.5;entryDx=0;entryDy=0;labelBackgroundColor=none;fontColor=default;strokeColor=#000000;" parent="1" source="AFVBEa2lu6-2GRhfA7ZJ-29" target="sjSc6PjK9yt8h6AtYTrf-7" edge="1">
          <mxGeometry width="50" height="50" relative="1" as="geometry">
            <mxPoint x="145" y="445" as="sourcePoint" />
            <mxPoint x="195" y="395" as="targetPoint" />
          </mxGeometry>
        </mxCell>
        <mxCell id="AFVBEa2lu6-2GRhfA7ZJ-37" value="&lt;font style=&quot;font-size: 11px;&quot;&gt;Instructor&lt;br&gt;Name&lt;/font&gt;" style="ellipse;whiteSpace=wrap;html=1;labelBackgroundColor=none;fillColor=#F8CECC;strokeColor=#000000;fontColor=#393C56;" parent="1" vertex="1">
          <mxGeometry x="910" y="-30" width="60" height="37.5" as="geometry" />
        </mxCell>
        <mxCell id="AFVBEa2lu6-2GRhfA7ZJ-40" value="&lt;font style=&quot;font-size: 11px;&quot;&gt;Address&lt;/font&gt;" style="ellipse;whiteSpace=wrap;html=1;labelBackgroundColor=none;fillColor=#F8CECC;strokeColor=#000000;fontColor=#393C56;" parent="1" vertex="1">
          <mxGeometry x="980" y="-20" width="50" height="30" as="geometry" />
        </mxCell>
        <mxCell id="AFVBEa2lu6-2GRhfA7ZJ-67" style="rounded=0;orthogonalLoop=1;jettySize=auto;html=1;entryX=1;entryY=0.25;entryDx=0;entryDy=0;endArrow=none;endFill=0;labelBackgroundColor=none;fontColor=default;strokeColor=#000000;" parent="1" source="AFVBEa2lu6-2GRhfA7ZJ-41" target="sjSc6PjK9yt8h6AtYTrf-3" edge="1">
          <mxGeometry relative="1" as="geometry" />
        </mxCell>
        <mxCell id="AFVBEa2lu6-2GRhfA7ZJ-41" value="&lt;font style=&quot;font-size: 11px;&quot;&gt;Email&lt;/font&gt;" style="ellipse;whiteSpace=wrap;html=1;labelBackgroundColor=none;fillColor=#F8CECC;strokeColor=#000000;fontColor=#393C56;" parent="1" vertex="1">
          <mxGeometry x="1022.5" y="5" width="55" height="30" as="geometry" />
        </mxCell>
        <mxCell id="AFVBEa2lu6-2GRhfA7ZJ-65" style="rounded=0;orthogonalLoop=1;jettySize=auto;html=1;entryX=1;entryY=0.5;entryDx=0;entryDy=0;endArrow=none;endFill=0;labelBackgroundColor=none;fontColor=default;strokeColor=#000000;" parent="1" source="AFVBEa2lu6-2GRhfA7ZJ-42" target="sjSc6PjK9yt8h6AtYTrf-3" edge="1">
          <mxGeometry relative="1" as="geometry" />
        </mxCell>
        <mxCell id="AFVBEa2lu6-2GRhfA7ZJ-42" value="&lt;font style=&quot;font-size: 11px;&quot;&gt;Gender&lt;/font&gt;" style="ellipse;whiteSpace=wrap;html=1;labelBackgroundColor=none;fillColor=#F8CECC;strokeColor=#000000;fontColor=#393C56;" parent="1" vertex="1">
          <mxGeometry x="1100" y="70" width="40" height="30" as="geometry" />
        </mxCell>
        <mxCell id="AFVBEa2lu6-2GRhfA7ZJ-43" value="&lt;font style=&quot;font-size: 11px;&quot;&gt;&lt;u&gt;InstructorID&lt;/u&gt;&lt;/font&gt;" style="ellipse;whiteSpace=wrap;html=1;labelBackgroundColor=none;fillColor=#F8CECC;strokeColor=#000000;fontColor=#393C56;" parent="1" vertex="1">
          <mxGeometry x="835" y="-20" width="70" height="35" as="geometry" />
        </mxCell>
        <mxCell id="AFVBEa2lu6-2GRhfA7ZJ-64" style="rounded=0;orthogonalLoop=1;jettySize=auto;html=1;endArrow=none;endFill=0;labelBackgroundColor=none;fontColor=default;strokeColor=#000000;entryX=0.996;entryY=0.646;entryDx=0;entryDy=0;entryPerimeter=0;" parent="1" source="AFVBEa2lu6-2GRhfA7ZJ-44" target="sjSc6PjK9yt8h6AtYTrf-3" edge="1">
          <mxGeometry relative="1" as="geometry">
            <mxPoint x="920" y="130" as="targetPoint" />
          </mxGeometry>
        </mxCell>
        <mxCell id="AFVBEa2lu6-2GRhfA7ZJ-44" value="&lt;font style=&quot;font-size: 11px;&quot;&gt;Age&lt;/font&gt;" style="ellipse;whiteSpace=wrap;html=1;dashed=1;labelBackgroundColor=none;fillColor=#F8CECC;strokeColor=#000000;fontColor=#393C56;" parent="1" vertex="1">
          <mxGeometry x="1096.25" y="105" width="40" height="30" as="geometry" />
        </mxCell>
        <mxCell id="AFVBEa2lu6-2GRhfA7ZJ-50" value="&lt;font style=&quot;font-size: 11px;&quot;&gt;BirthDate&lt;/font&gt;" style="ellipse;whiteSpace=wrap;html=1;labelBackgroundColor=none;fillColor=#F8CECC;strokeColor=#000000;fontColor=#393C56;" parent="1" vertex="1">
          <mxGeometry x="1070" y="140" width="60" height="36.25" as="geometry" />
        </mxCell>
        <mxCell id="AFVBEa2lu6-2GRhfA7ZJ-52" value="&lt;font style=&quot;font-size: 11px;&quot;&gt;Position&lt;/font&gt;" style="ellipse;whiteSpace=wrap;html=1;labelBackgroundColor=none;fillColor=#F8CECC;strokeColor=#000000;fontColor=#393C56;" parent="1" vertex="1">
          <mxGeometry x="997.5" y="200" width="50" height="40" as="geometry" />
        </mxCell>
        <mxCell id="AFVBEa2lu6-2GRhfA7ZJ-53" value="&lt;font style=&quot;font-size: 11px;&quot;&gt;Super-&lt;br&gt;ID&lt;br&gt;&lt;/font&gt;" style="ellipse;whiteSpace=wrap;html=1;labelBackgroundColor=none;fillColor=#F8CECC;strokeColor=#000000;fontColor=#393C56;" parent="1" vertex="1">
          <mxGeometry x="940" y="217.5" width="55" height="35" as="geometry" />
        </mxCell>
        <mxCell id="AFVBEa2lu6-2GRhfA7ZJ-60" style="rounded=0;orthogonalLoop=1;jettySize=auto;html=1;endArrow=none;endFill=0;entryX=0.5;entryY=1;entryDx=0;entryDy=0;labelBackgroundColor=none;fontColor=default;strokeColor=#000000;" parent="1" source="AFVBEa2lu6-2GRhfA7ZJ-54" target="sjSc6PjK9yt8h6AtYTrf-3" edge="1">
          <mxGeometry relative="1" as="geometry" />
        </mxCell>
        <mxCell id="AFVBEa2lu6-2GRhfA7ZJ-54" value="&lt;font style=&quot;font-size: 11px;&quot;&gt;Salary&lt;/font&gt;" style="ellipse;whiteSpace=wrap;html=1;labelBackgroundColor=none;fillColor=#F8CECC;strokeColor=#000000;fontColor=#393C56;" parent="1" vertex="1">
          <mxGeometry x="810" y="215" width="60" height="35" as="geometry" />
        </mxCell>
        <mxCell id="AFVBEa2lu6-2GRhfA7ZJ-56" value="&lt;font style=&quot;font-size: 11px;&quot;&gt;Degree&lt;/font&gt;" style="ellipse;whiteSpace=wrap;html=1;labelBackgroundColor=none;fillColor=#F8CECC;strokeColor=#000000;fontColor=#393C56;" parent="1" vertex="1">
          <mxGeometry x="875" y="220" width="55" height="36.25" as="geometry" />
        </mxCell>
        <mxCell id="AFVBEa2lu6-2GRhfA7ZJ-57" value="&lt;font style=&quot;font-size: 11px;&quot;&gt;Experience&lt;br&gt;Yrs&lt;/font&gt;" style="ellipse;whiteSpace=wrap;html=1;labelBackgroundColor=none;fillColor=#F8CECC;strokeColor=#000000;fontColor=#393C56;" parent="1" vertex="1">
          <mxGeometry x="750" y="190" width="70" height="40" as="geometry" />
        </mxCell>
        <mxCell id="AFVBEa2lu6-2GRhfA7ZJ-58" style="rounded=0;orthogonalLoop=1;jettySize=auto;html=1;endArrow=none;endFill=0;entryX=0.364;entryY=0.996;entryDx=0;entryDy=0;labelBackgroundColor=none;fontColor=default;strokeColor=#000000;entryPerimeter=0;" parent="1" source="AFVBEa2lu6-2GRhfA7ZJ-57" target="sjSc6PjK9yt8h6AtYTrf-3" edge="1">
          <mxGeometry relative="1" as="geometry">
            <mxPoint x="700" y="120" as="targetPoint" />
          </mxGeometry>
        </mxCell>
        <mxCell id="AFVBEa2lu6-2GRhfA7ZJ-59" style="rounded=0;orthogonalLoop=1;jettySize=auto;html=1;entryX=0.598;entryY=0.996;entryDx=0;entryDy=0;entryPerimeter=0;endArrow=none;endFill=0;labelBackgroundColor=none;fontColor=default;strokeColor=#000000;" parent="1" source="AFVBEa2lu6-2GRhfA7ZJ-56" target="sjSc6PjK9yt8h6AtYTrf-3" edge="1">
          <mxGeometry relative="1" as="geometry" />
        </mxCell>
        <mxCell id="AFVBEa2lu6-2GRhfA7ZJ-61" style="rounded=0;orthogonalLoop=1;jettySize=auto;html=1;entryX=0.75;entryY=1;entryDx=0;entryDy=0;endArrow=none;endFill=0;labelBackgroundColor=none;fontColor=default;strokeColor=#000000;" parent="1" source="AFVBEa2lu6-2GRhfA7ZJ-53" target="sjSc6PjK9yt8h6AtYTrf-3" edge="1">
          <mxGeometry relative="1" as="geometry" />
        </mxCell>
        <mxCell id="AFVBEa2lu6-2GRhfA7ZJ-62" style="rounded=0;orthogonalLoop=1;jettySize=auto;html=1;endArrow=none;endFill=0;labelBackgroundColor=none;fontColor=default;strokeColor=#000000;entryX=0.889;entryY=1;entryDx=0;entryDy=0;entryPerimeter=0;" parent="1" source="AFVBEa2lu6-2GRhfA7ZJ-52" target="sjSc6PjK9yt8h6AtYTrf-3" edge="1">
          <mxGeometry relative="1" as="geometry">
            <mxPoint x="910" y="170" as="targetPoint" />
          </mxGeometry>
        </mxCell>
        <mxCell id="AFVBEa2lu6-2GRhfA7ZJ-63" style="rounded=0;orthogonalLoop=1;jettySize=auto;html=1;endArrow=none;endFill=0;labelBackgroundColor=none;fontColor=default;strokeColor=#000000;entryX=1;entryY=0.75;entryDx=0;entryDy=0;" parent="1" source="AFVBEa2lu6-2GRhfA7ZJ-50" target="sjSc6PjK9yt8h6AtYTrf-3" edge="1">
          <mxGeometry relative="1" as="geometry">
            <mxPoint x="910" y="140" as="targetPoint" />
          </mxGeometry>
        </mxCell>
        <mxCell id="AFVBEa2lu6-2GRhfA7ZJ-66" style="rounded=0;orthogonalLoop=1;jettySize=auto;html=1;entryX=0.991;entryY=0.417;entryDx=0;entryDy=0;entryPerimeter=0;endArrow=none;endFill=0;labelBackgroundColor=none;fontColor=default;strokeColor=#000000;exitX=0;exitY=0.5;exitDx=0;exitDy=0;" parent="1" source="wt7vt2lLQzlReNg-JHcN-9" target="sjSc6PjK9yt8h6AtYTrf-3" edge="1">
          <mxGeometry relative="1" as="geometry">
            <mxPoint x="1016.0143195421538" y="79.4529907684655" as="sourcePoint" />
          </mxGeometry>
        </mxCell>
        <mxCell id="AFVBEa2lu6-2GRhfA7ZJ-70" style="rounded=0;orthogonalLoop=1;jettySize=auto;html=1;endArrow=none;endFill=0;labelBackgroundColor=none;fontColor=default;strokeColor=#000000;" parent="1" source="AFVBEa2lu6-2GRhfA7ZJ-40" target="sjSc6PjK9yt8h6AtYTrf-3" edge="1">
          <mxGeometry relative="1" as="geometry" />
        </mxCell>
        <mxCell id="AFVBEa2lu6-2GRhfA7ZJ-71" style="rounded=0;orthogonalLoop=1;jettySize=auto;html=1;endArrow=none;endFill=0;labelBackgroundColor=none;fontColor=default;strokeColor=#000000;" parent="1" source="AFVBEa2lu6-2GRhfA7ZJ-37" edge="1">
          <mxGeometry relative="1" as="geometry">
            <mxPoint x="860" y="90" as="targetPoint" />
          </mxGeometry>
        </mxCell>
        <mxCell id="AFVBEa2lu6-2GRhfA7ZJ-72" style="rounded=0;orthogonalLoop=1;jettySize=auto;html=1;endArrow=none;endFill=0;labelBackgroundColor=none;fontColor=default;strokeColor=#000000;" parent="1" source="AFVBEa2lu6-2GRhfA7ZJ-43" edge="1">
          <mxGeometry relative="1" as="geometry">
            <mxPoint x="850" y="90" as="targetPoint" />
          </mxGeometry>
        </mxCell>
        <mxCell id="AFVBEa2lu6-2GRhfA7ZJ-74" value="&lt;u style=&quot;&quot;&gt;&lt;font style=&quot;font-size: 11px;&quot;&gt;St-ID&lt;/font&gt;&lt;/u&gt;" style="ellipse;whiteSpace=wrap;html=1;labelBackgroundColor=none;fillColor=#F8CECC;strokeColor=#000000;fontColor=#393C56;" parent="1" vertex="1">
          <mxGeometry x="860" y="420" width="40" height="30" as="geometry" />
        </mxCell>
        <mxCell id="AFVBEa2lu6-2GRhfA7ZJ-75" value="&lt;font style=&quot;font-size: 11px;&quot;&gt;St-Name&lt;/font&gt;" style="ellipse;whiteSpace=wrap;html=1;rotation=0;labelBackgroundColor=none;fillColor=#F8CECC;strokeColor=#000000;fontColor=#393C56;" parent="1" vertex="1">
          <mxGeometry x="880" y="390" width="50" height="30" as="geometry" />
        </mxCell>
        <mxCell id="AFVBEa2lu6-2GRhfA7ZJ-89" style="rounded=0;orthogonalLoop=1;jettySize=auto;html=1;entryX=0.845;entryY=-0.006;entryDx=0;entryDy=0;endArrow=none;endFill=0;entryPerimeter=0;labelBackgroundColor=none;fontColor=default;strokeColor=#000000;" parent="1" source="AFVBEa2lu6-2GRhfA7ZJ-77" target="sjSc6PjK9yt8h6AtYTrf-4" edge="1">
          <mxGeometry relative="1" as="geometry" />
        </mxCell>
        <mxCell id="AFVBEa2lu6-2GRhfA7ZJ-77" value="&lt;font style=&quot;font-size: 11px;&quot;&gt;Email&lt;/font&gt;" style="ellipse;whiteSpace=wrap;html=1;labelBackgroundColor=none;fillColor=#F8CECC;strokeColor=#000000;fontColor=#393C56;" parent="1" vertex="1">
          <mxGeometry x="930" y="360" width="40" height="30" as="geometry" />
        </mxCell>
        <mxCell id="AFVBEa2lu6-2GRhfA7ZJ-90" style="rounded=0;orthogonalLoop=1;jettySize=auto;html=1;entryX=0.999;entryY=0.147;entryDx=0;entryDy=0;endArrow=none;endFill=0;entryPerimeter=0;labelBackgroundColor=none;fontColor=default;strokeColor=#000000;exitX=0.5;exitY=1;exitDx=0;exitDy=0;" parent="1" source="wt7vt2lLQzlReNg-JHcN-8" target="sjSc6PjK9yt8h6AtYTrf-4" edge="1">
          <mxGeometry relative="1" as="geometry">
            <mxPoint x="960" y="320" as="sourcePoint" />
          </mxGeometry>
        </mxCell>
        <mxCell id="AFVBEa2lu6-2GRhfA7ZJ-79" value="&lt;font style=&quot;font-size: 11px;&quot;&gt;Gender&lt;/font&gt;" style="ellipse;whiteSpace=wrap;html=1;labelBackgroundColor=none;fillColor=#F8CECC;strokeColor=#000000;fontColor=#393C56;" parent="1" vertex="1">
          <mxGeometry x="1090" y="340" width="40" height="30" as="geometry" />
        </mxCell>
        <mxCell id="AFVBEa2lu6-2GRhfA7ZJ-80" value="&lt;font style=&quot;font-size: 11px;&quot;&gt;Age&lt;/font&gt;" style="ellipse;whiteSpace=wrap;html=1;dashed=1;labelBackgroundColor=none;fillColor=#F8CECC;strokeColor=#000000;fontColor=#393C56;" parent="1" vertex="1">
          <mxGeometry x="1140" y="360" width="40" height="30" as="geometry" />
        </mxCell>
        <mxCell id="E_pe6YxIyCe0430A1qZB-54" style="rounded=0;orthogonalLoop=1;jettySize=auto;html=1;entryX=0.5;entryY=0;entryDx=0;entryDy=0;strokeColor=#000000;endArrow=none;endFill=0;labelBackgroundColor=none;fontColor=default;" parent="1" source="AFVBEa2lu6-2GRhfA7ZJ-81" target="E_pe6YxIyCe0430A1qZB-43" edge="1">
          <mxGeometry relative="1" as="geometry" />
        </mxCell>
        <mxCell id="AFVBEa2lu6-2GRhfA7ZJ-81" value="&lt;font style=&quot;font-size: 11px;&quot;&gt;Fname&lt;/font&gt;" style="ellipse;whiteSpace=wrap;html=1;labelBackgroundColor=none;fillColor=#F8CECC;strokeColor=#000000;fontColor=#393C56;" parent="1" vertex="1">
          <mxGeometry x="670" y="240" width="60" height="30" as="geometry" />
        </mxCell>
        <mxCell id="E_pe6YxIyCe0430A1qZB-47" style="rounded=0;orthogonalLoop=1;jettySize=auto;html=1;entryX=1;entryY=0.75;entryDx=0;entryDy=0;strokeColor=#000000;endArrow=none;endFill=0;labelBackgroundColor=none;fontColor=default;" parent="1" source="AFVBEa2lu6-2GRhfA7ZJ-82" target="sjSc6PjK9yt8h6AtYTrf-4" edge="1">
          <mxGeometry relative="1" as="geometry" />
        </mxCell>
        <mxCell id="AFVBEa2lu6-2GRhfA7ZJ-82" value="&lt;font style=&quot;font-size: 11px;&quot;&gt;ColllegeGrad&lt;br&gt;-Year&lt;/font&gt;" style="ellipse;whiteSpace=wrap;html=1;labelBackgroundColor=none;fillColor=#F8CECC;strokeColor=#000000;fontColor=#393C56;" parent="1" vertex="1">
          <mxGeometry x="970" y="560" width="75" height="30" as="geometry" />
        </mxCell>
        <mxCell id="AFVBEa2lu6-2GRhfA7ZJ-83" value="&lt;font style=&quot;font-size: 11px;&quot;&gt;St-Status&lt;/font&gt;" style="ellipse;whiteSpace=wrap;html=1;labelBackgroundColor=none;fillColor=#F8CECC;strokeColor=#000000;fontColor=#393C56;" parent="1" vertex="1">
          <mxGeometry x="1180" y="430" width="50" height="25" as="geometry" />
        </mxCell>
        <mxCell id="AFVBEa2lu6-2GRhfA7ZJ-86" style="rounded=0;orthogonalLoop=1;jettySize=auto;html=1;entryX=0.622;entryY=0;entryDx=0;entryDy=0;entryPerimeter=0;endArrow=none;endFill=0;labelBackgroundColor=none;fontColor=default;strokeColor=#000000;" parent="1" source="AFVBEa2lu6-2GRhfA7ZJ-74" target="sjSc6PjK9yt8h6AtYTrf-4" edge="1">
          <mxGeometry relative="1" as="geometry" />
        </mxCell>
        <mxCell id="AFVBEa2lu6-2GRhfA7ZJ-87" style="rounded=0;orthogonalLoop=1;jettySize=auto;html=1;entryX=0.75;entryY=0;entryDx=0;entryDy=0;endArrow=none;endFill=0;labelBackgroundColor=none;fontColor=default;strokeColor=#000000;" parent="1" source="AFVBEa2lu6-2GRhfA7ZJ-75" target="sjSc6PjK9yt8h6AtYTrf-4" edge="1">
          <mxGeometry relative="1" as="geometry" />
        </mxCell>
        <mxCell id="AFVBEa2lu6-2GRhfA7ZJ-91" style="rounded=0;orthogonalLoop=1;jettySize=auto;html=1;endArrow=none;endFill=0;entryX=1;entryY=0.25;entryDx=0;entryDy=0;labelBackgroundColor=none;fontColor=default;strokeColor=#000000;" parent="1" source="AFVBEa2lu6-2GRhfA7ZJ-79" target="sjSc6PjK9yt8h6AtYTrf-4" edge="1">
          <mxGeometry relative="1" as="geometry">
            <mxPoint x="820" y="470" as="targetPoint" />
          </mxGeometry>
        </mxCell>
        <mxCell id="AFVBEa2lu6-2GRhfA7ZJ-92" style="rounded=0;orthogonalLoop=1;jettySize=auto;html=1;endArrow=none;endFill=0;entryX=1.011;entryY=0.367;entryDx=0;entryDy=0;entryPerimeter=0;labelBackgroundColor=none;fontColor=default;strokeColor=#000000;" parent="1" source="AFVBEa2lu6-2GRhfA7ZJ-80" target="sjSc6PjK9yt8h6AtYTrf-4" edge="1">
          <mxGeometry relative="1" as="geometry" />
        </mxCell>
        <mxCell id="AFVBEa2lu6-2GRhfA7ZJ-96" style="rounded=0;orthogonalLoop=1;jettySize=auto;html=1;entryX=1;entryY=0.5;entryDx=0;entryDy=0;endArrow=none;endFill=0;labelBackgroundColor=none;fontColor=default;strokeColor=#000000;" parent="1" source="AFVBEa2lu6-2GRhfA7ZJ-83" target="sjSc6PjK9yt8h6AtYTrf-4" edge="1">
          <mxGeometry relative="1" as="geometry" />
        </mxCell>
        <mxCell id="AFVBEa2lu6-2GRhfA7ZJ-105" style="rounded=0;orthogonalLoop=1;jettySize=auto;html=1;endArrow=none;endFill=0;labelBackgroundColor=none;fontColor=default;strokeColor=#000000;entryX=0;entryY=0.617;entryDx=0;entryDy=0;entryPerimeter=0;" parent="1" source="AFVBEa2lu6-2GRhfA7ZJ-100" target="sjSc6PjK9yt8h6AtYTrf-8" edge="1">
          <mxGeometry relative="1" as="geometry" />
        </mxCell>
        <mxCell id="AFVBEa2lu6-2GRhfA7ZJ-100" value="&lt;u style=&quot;&quot;&gt;&lt;font style=&quot;font-size: 11px;&quot;&gt;Question-ID&lt;/font&gt;&lt;/u&gt;" style="ellipse;whiteSpace=wrap;html=1;labelBackgroundColor=none;fillColor=#F8CECC;strokeColor=#000000;fontColor=#393C56;" parent="1" vertex="1">
          <mxGeometry x="70" y="660" width="70" height="40" as="geometry" />
        </mxCell>
        <mxCell id="AFVBEa2lu6-2GRhfA7ZJ-106" style="rounded=0;orthogonalLoop=1;jettySize=auto;html=1;endArrow=none;endFill=0;labelBackgroundColor=none;fontColor=default;strokeColor=#000000;exitX=1;exitY=0.5;exitDx=0;exitDy=0;" parent="1" source="AFVBEa2lu6-2GRhfA7ZJ-101" target="sjSc6PjK9yt8h6AtYTrf-8" edge="1">
          <mxGeometry relative="1" as="geometry" />
        </mxCell>
        <mxCell id="AFVBEa2lu6-2GRhfA7ZJ-101" value="&lt;font style=&quot;font-size: 11px;&quot;&gt;Question-txt&lt;/font&gt;" style="ellipse;whiteSpace=wrap;html=1;labelBackgroundColor=none;fillColor=#F8CECC;strokeColor=#000000;fontColor=#393C56;" parent="1" vertex="1">
          <mxGeometry x="70" y="710" width="60" height="40" as="geometry" />
        </mxCell>
        <mxCell id="AFVBEa2lu6-2GRhfA7ZJ-102" value="&lt;span style=&quot;font-size: 11px;&quot;&gt;Correct&lt;br&gt;Answer&lt;br&gt;&lt;/span&gt;" style="ellipse;whiteSpace=wrap;html=1;labelBackgroundColor=none;fillColor=#F8CECC;strokeColor=#000000;fontColor=#393C56;" parent="1" vertex="1">
          <mxGeometry x="100" y="750" width="60" height="40" as="geometry" />
        </mxCell>
        <mxCell id="AFVBEa2lu6-2GRhfA7ZJ-103" value="&lt;span style=&quot;font-size: 11px;&quot;&gt;Question-&lt;br&gt;Level&lt;br&gt;&lt;/span&gt;" style="ellipse;whiteSpace=wrap;html=1;labelBackgroundColor=none;fillColor=#F8CECC;strokeColor=#000000;fontColor=#393C56;" parent="1" vertex="1">
          <mxGeometry x="160" y="770" width="60" height="40" as="geometry" />
        </mxCell>
        <mxCell id="AFVBEa2lu6-2GRhfA7ZJ-104" value="&lt;span style=&quot;font-size: 11px;&quot;&gt;Question-&lt;br&gt;Type&lt;br&gt;&lt;/span&gt;" style="ellipse;whiteSpace=wrap;html=1;labelBackgroundColor=none;fillColor=#F8CECC;strokeColor=#000000;fontColor=#393C56;" parent="1" vertex="1">
          <mxGeometry x="225" y="765" width="60" height="40" as="geometry" />
        </mxCell>
        <mxCell id="AFVBEa2lu6-2GRhfA7ZJ-107" style="rounded=0;orthogonalLoop=1;jettySize=auto;html=1;entryX=0.189;entryY=1;entryDx=0;entryDy=0;entryPerimeter=0;endArrow=none;endFill=0;labelBackgroundColor=none;fontColor=default;strokeColor=#000000;" parent="1" source="AFVBEa2lu6-2GRhfA7ZJ-102" target="sjSc6PjK9yt8h6AtYTrf-8" edge="1">
          <mxGeometry relative="1" as="geometry" />
        </mxCell>
        <mxCell id="AFVBEa2lu6-2GRhfA7ZJ-108" style="rounded=0;orthogonalLoop=1;jettySize=auto;html=1;entryX=0.367;entryY=0.983;entryDx=0;entryDy=0;entryPerimeter=0;endArrow=none;endFill=0;labelBackgroundColor=none;fontColor=default;strokeColor=#000000;" parent="1" source="AFVBEa2lu6-2GRhfA7ZJ-103" target="sjSc6PjK9yt8h6AtYTrf-8" edge="1">
          <mxGeometry relative="1" as="geometry" />
        </mxCell>
        <mxCell id="AFVBEa2lu6-2GRhfA7ZJ-109" style="rounded=0;orthogonalLoop=1;jettySize=auto;html=1;entryX=0.5;entryY=1;entryDx=0;entryDy=0;endArrow=none;endFill=0;labelBackgroundColor=none;fontColor=default;strokeColor=#000000;" parent="1" source="AFVBEa2lu6-2GRhfA7ZJ-104" target="sjSc6PjK9yt8h6AtYTrf-8" edge="1">
          <mxGeometry relative="1" as="geometry" />
        </mxCell>
        <mxCell id="AFVBEa2lu6-2GRhfA7ZJ-129" value="&lt;u style=&quot;&quot;&gt;&lt;font style=&quot;font-size: 11px;&quot;&gt;Exam-ID&lt;/font&gt;&lt;/u&gt;" style="ellipse;whiteSpace=wrap;html=1;labelBackgroundColor=none;fillColor=#F8CECC;strokeColor=#000000;fontColor=#393C56;" parent="1" vertex="1">
          <mxGeometry x="340" y="340" width="50" height="40" as="geometry" />
        </mxCell>
        <mxCell id="AFVBEa2lu6-2GRhfA7ZJ-130" value="&lt;span style=&quot;font-size: 11px;&quot;&gt;Exam-&lt;br&gt;Name&lt;br&gt;&lt;/span&gt;" style="ellipse;whiteSpace=wrap;html=1;labelBackgroundColor=none;fillColor=#F8CECC;strokeColor=#000000;fontColor=#393C56;" parent="1" vertex="1">
          <mxGeometry x="330" y="390" width="50" height="40" as="geometry" />
        </mxCell>
        <mxCell id="AFVBEa2lu6-2GRhfA7ZJ-137" style="rounded=0;orthogonalLoop=1;jettySize=auto;html=1;endArrow=none;endFill=0;labelBackgroundColor=none;fontColor=default;strokeColor=#000000;entryX=0.648;entryY=0.029;entryDx=0;entryDy=0;entryPerimeter=0;" parent="1" source="AFVBEa2lu6-2GRhfA7ZJ-133" target="sjSc6PjK9yt8h6AtYTrf-6" edge="1">
          <mxGeometry relative="1" as="geometry">
            <mxPoint x="460" y="430" as="targetPoint" />
          </mxGeometry>
        </mxCell>
        <mxCell id="AFVBEa2lu6-2GRhfA7ZJ-133" value="&lt;span style=&quot;font-size: 11px;&quot;&gt;Exam-&lt;br&gt;Date&lt;br&gt;&lt;/span&gt;" style="ellipse;whiteSpace=wrap;html=1;labelBackgroundColor=none;fillColor=#F8CECC;strokeColor=#000000;fontColor=#393C56;" parent="1" vertex="1">
          <mxGeometry x="440" y="320" width="50" height="40" as="geometry" />
        </mxCell>
        <mxCell id="AFVBEa2lu6-2GRhfA7ZJ-134" value="&lt;span style=&quot;font-size: 11px;&quot;&gt;Exam-&lt;br&gt;Duration&lt;br&gt;&lt;/span&gt;" style="ellipse;whiteSpace=wrap;html=1;labelBackgroundColor=none;fillColor=#F8CECC;strokeColor=#000000;fontColor=#393C56;" parent="1" vertex="1">
          <mxGeometry x="380" y="310" width="50" height="40" as="geometry" />
        </mxCell>
        <mxCell id="AFVBEa2lu6-2GRhfA7ZJ-135" style="rounded=0;orthogonalLoop=1;jettySize=auto;html=1;entryX=0.25;entryY=0;entryDx=0;entryDy=0;endArrow=none;endFill=0;labelBackgroundColor=none;fontColor=default;strokeColor=#000000;" parent="1" source="AFVBEa2lu6-2GRhfA7ZJ-129" target="sjSc6PjK9yt8h6AtYTrf-6" edge="1">
          <mxGeometry relative="1" as="geometry" />
        </mxCell>
        <mxCell id="AFVBEa2lu6-2GRhfA7ZJ-136" style="rounded=0;orthogonalLoop=1;jettySize=auto;html=1;endArrow=none;endFill=0;labelBackgroundColor=none;fontColor=default;strokeColor=#000000;entryX=0.5;entryY=0;entryDx=0;entryDy=0;" parent="1" source="AFVBEa2lu6-2GRhfA7ZJ-134" target="sjSc6PjK9yt8h6AtYTrf-6" edge="1">
          <mxGeometry relative="1" as="geometry">
            <mxPoint x="468" y="460" as="targetPoint" />
          </mxGeometry>
        </mxCell>
        <mxCell id="AFVBEa2lu6-2GRhfA7ZJ-140" style="rounded=0;orthogonalLoop=1;jettySize=auto;html=1;entryX=0.18;entryY=0.027;entryDx=0;entryDy=0;endArrow=none;endFill=0;labelBackgroundColor=none;fontColor=default;strokeColor=#000000;entryPerimeter=0;" parent="1" source="AFVBEa2lu6-2GRhfA7ZJ-130" target="sjSc6PjK9yt8h6AtYTrf-6" edge="1">
          <mxGeometry relative="1" as="geometry" />
        </mxCell>
        <mxCell id="AFVBEa2lu6-2GRhfA7ZJ-144" value="" style="fontSize=12;html=1;endArrow=none;startArrow=none;rounded=0;exitX=0;exitY=0.5;exitDx=0;exitDy=0;entryX=1;entryY=0.5;entryDx=0;entryDy=0;startFill=0;endFill=0;labelBackgroundColor=none;fontColor=default;strokeColor=#000000;" parent="1" source="sjSc6PjK9yt8h6AtYTrf-2" target="AFVBEa2lu6-2GRhfA7ZJ-143" edge="1">
          <mxGeometry width="100" height="100" relative="1" as="geometry">
            <mxPoint x="400" y="195" as="sourcePoint" />
            <mxPoint x="241" y="276" as="targetPoint" />
          </mxGeometry>
        </mxCell>
        <mxCell id="AFVBEa2lu6-2GRhfA7ZJ-143" value="Offers" style="rhombus;whiteSpace=wrap;html=1;labelBackgroundColor=none;fillColor=#FFF2CC;strokeColor=#000000;fontColor=#393C56;" parent="1" vertex="1">
          <mxGeometry x="285" y="170" width="80" height="50" as="geometry" />
        </mxCell>
        <mxCell id="AFVBEa2lu6-2GRhfA7ZJ-147" value="" style="fontSize=12;html=1;endArrow=none;startArrow=none;rounded=0;exitX=1;exitY=0.5;exitDx=0;exitDy=0;entryX=0;entryY=0.5;entryDx=0;entryDy=0;startFill=0;endFill=0;labelBackgroundColor=none;fontColor=default;strokeColor=#000000;edgeStyle=orthogonalEdgeStyle;" parent="1" source="sjSc6PjK9yt8h6AtYTrf-2" target="AFVBEa2lu6-2GRhfA7ZJ-146" edge="1">
          <mxGeometry width="100" height="100" relative="1" as="geometry">
            <mxPoint x="490" y="180" as="sourcePoint" />
            <mxPoint x="690" y="100" as="targetPoint" />
            <Array as="points">
              <mxPoint x="490" y="200" />
              <mxPoint x="535" y="200" />
              <mxPoint x="535" y="187" />
            </Array>
          </mxGeometry>
        </mxCell>
        <mxCell id="AFVBEa2lu6-2GRhfA7ZJ-146" value="Works-at" style="rhombus;whiteSpace=wrap;html=1;labelBackgroundColor=none;fillColor=#FFF2CC;strokeColor=#000000;fontColor=#393C56;" parent="1" vertex="1">
          <mxGeometry x="580" y="161.88" width="80" height="50" as="geometry" />
        </mxCell>
        <mxCell id="AFVBEa2lu6-2GRhfA7ZJ-150" value="" style="fontSize=12;html=1;endArrow=none;startArrow=none;rounded=0;entryX=0;entryY=0.5;entryDx=0;entryDy=0;startFill=0;endFill=0;labelBackgroundColor=none;fontColor=default;strokeColor=#000000;exitX=0.933;exitY=1.017;exitDx=0;exitDy=0;exitPerimeter=0;" parent="1" source="sjSc6PjK9yt8h6AtYTrf-2" target="AFVBEa2lu6-2GRhfA7ZJ-149" edge="1">
          <mxGeometry width="100" height="100" relative="1" as="geometry">
            <mxPoint x="490" y="220" as="sourcePoint" />
            <mxPoint x="731" y="476" as="targetPoint" />
            <Array as="points">
              <mxPoint x="580" y="400" />
              <mxPoint x="580" y="478" />
            </Array>
          </mxGeometry>
        </mxCell>
        <mxCell id="AFVBEa2lu6-2GRhfA7ZJ-149" value="Study-at" style="rhombus;whiteSpace=wrap;html=1;labelBackgroundColor=none;fillColor=#FFF2CC;strokeColor=#000000;fontColor=#393C56;" parent="1" vertex="1">
          <mxGeometry x="600" y="452.5" width="80" height="50" as="geometry" />
        </mxCell>
        <mxCell id="AFVBEa2lu6-2GRhfA7ZJ-153" value="" style="rounded=0;orthogonalLoop=1;jettySize=auto;html=1;entryX=0;entryY=0.5;entryDx=0;entryDy=0;endArrow=none;endFill=0;startArrow=none;startFill=0;labelBackgroundColor=none;fontColor=default;strokeColor=#000000;exitX=1;exitY=0.5;exitDx=0;exitDy=0;" parent="1" source="sjSc6PjK9yt8h6AtYTrf-7" target="AFVBEa2lu6-2GRhfA7ZJ-152" edge="1">
          <mxGeometry relative="1" as="geometry">
            <mxPoint x="260" y="495" as="sourcePoint" />
            <mxPoint x="395" y="480" as="targetPoint" />
            <Array as="points">
              <mxPoint x="260" y="340" />
              <mxPoint x="260" y="495" />
            </Array>
          </mxGeometry>
        </mxCell>
        <mxCell id="AFVBEa2lu6-2GRhfA7ZJ-152" value="Includes" style="rhombus;whiteSpace=wrap;html=1;labelBackgroundColor=none;fillColor=#FFF2CC;strokeColor=#000000;fontColor=#393C56;" parent="1" vertex="1">
          <mxGeometry x="280" y="470" width="80" height="50" as="geometry" />
        </mxCell>
        <mxCell id="AFVBEa2lu6-2GRhfA7ZJ-160" style="rounded=0;orthogonalLoop=1;jettySize=auto;html=1;endArrow=ERone;endFill=0;startArrow=none;startFill=0;elbow=vertical;labelBackgroundColor=none;fontColor=default;strokeColor=#000000;shape=link;entryX=0.844;entryY=0.983;entryDx=0;entryDy=0;entryPerimeter=0;" parent="1" source="AFVBEa2lu6-2GRhfA7ZJ-161" target="sjSc6PjK9yt8h6AtYTrf-6" edge="1">
          <mxGeometry relative="1" as="geometry">
            <mxPoint x="470" y="540" as="targetPoint" />
          </mxGeometry>
        </mxCell>
        <mxCell id="AFVBEa2lu6-2GRhfA7ZJ-162" value="" style="rounded=0;orthogonalLoop=1;jettySize=auto;html=1;entryX=0;entryY=0.5;entryDx=0;entryDy=0;endArrow=none;endFill=0;startArrow=ERoneToMany;startFill=0;labelBackgroundColor=none;fontColor=default;strokeColor=#000000;shape=link;exitX=1;exitY=0.5;exitDx=0;exitDy=0;" parent="1" source="sjSc6PjK9yt8h6AtYTrf-8" target="AFVBEa2lu6-2GRhfA7ZJ-161" edge="1">
          <mxGeometry relative="1" as="geometry">
            <mxPoint x="240" y="710" as="sourcePoint" />
            <mxPoint x="430" y="510" as="targetPoint" />
            <Array as="points">
              <mxPoint x="310" y="685" />
              <mxPoint x="350" y="705" />
            </Array>
          </mxGeometry>
        </mxCell>
        <mxCell id="AFVBEa2lu6-2GRhfA7ZJ-161" value="Answers" style="rhombus;whiteSpace=wrap;html=1;labelBackgroundColor=none;fillColor=#FFF2CC;strokeColor=#000000;fontColor=#393C56;" parent="1" vertex="1">
          <mxGeometry x="430" y="680" width="80" height="50" as="geometry" />
        </mxCell>
        <mxCell id="AFVBEa2lu6-2GRhfA7ZJ-168" style="edgeStyle=orthogonalEdgeStyle;rounded=0;orthogonalLoop=1;jettySize=auto;html=1;entryX=0;entryY=0.5;entryDx=0;entryDy=0;curved=1;exitX=0.5;exitY=1;exitDx=0;exitDy=0;endArrow=none;endFill=0;labelBackgroundColor=none;fontColor=default;strokeColor=#000000;shape=link;" parent="1" source="AFVBEa2lu6-2GRhfA7ZJ-164" target="sjSc6PjK9yt8h6AtYTrf-3" edge="1">
          <mxGeometry relative="1" as="geometry" />
        </mxCell>
        <mxCell id="AFVBEa2lu6-2GRhfA7ZJ-164" value="Manages" style="rhombus;whiteSpace=wrap;html=1;rotation=0;labelBackgroundColor=none;fillColor=#FFF2CC;strokeColor=#000000;fontColor=#393C56;" parent="1" vertex="1">
          <mxGeometry x="580" y="10" width="80" height="50" as="geometry" />
        </mxCell>
        <mxCell id="AFVBEa2lu6-2GRhfA7ZJ-167" style="rounded=0;orthogonalLoop=1;jettySize=auto;html=1;exitX=1;exitY=0.5;exitDx=0;exitDy=0;endArrow=none;endFill=0;labelBackgroundColor=none;fontColor=default;strokeColor=#000000;entryX=0;entryY=0.25;entryDx=0;entryDy=0;" parent="1" source="AFVBEa2lu6-2GRhfA7ZJ-164" target="sjSc6PjK9yt8h6AtYTrf-3" edge="1">
          <mxGeometry relative="1" as="geometry">
            <mxPoint x="790" y="100" as="targetPoint" />
          </mxGeometry>
        </mxCell>
        <mxCell id="AFVBEa2lu6-2GRhfA7ZJ-175" value="" style="rounded=0;orthogonalLoop=1;jettySize=auto;html=1;endArrow=none;endFill=0;startArrow=none;startFill=0;exitX=0.25;exitY=0;exitDx=0;exitDy=0;labelBackgroundColor=none;fontColor=default;strokeColor=#000000;shape=link;" parent="1" source="sjSc6PjK9yt8h6AtYTrf-3" target="BMZOOyI94QuiM5lB1iNM-34" edge="1">
          <mxGeometry relative="1" as="geometry">
            <mxPoint x="210" y="5" as="targetPoint" />
            <mxPoint x="793" y="88" as="sourcePoint" />
            <Array as="points">
              <mxPoint x="813" y="-90" />
            </Array>
          </mxGeometry>
        </mxCell>
        <mxCell id="E_pe6YxIyCe0430A1qZB-63" style="rounded=0;orthogonalLoop=1;jettySize=auto;html=1;entryX=0.5;entryY=1;entryDx=0;entryDy=0;strokeColor=#000000;endArrow=none;endFill=0;labelBackgroundColor=none;fontColor=default;" parent="1" source="AFVBEa2lu6-2GRhfA7ZJ-188" target="BMZOOyI94QuiM5lB1iNM-34" edge="1">
          <mxGeometry relative="1" as="geometry" />
        </mxCell>
        <mxCell id="AFVBEa2lu6-2GRhfA7ZJ-188" value="&lt;font style=&quot;font-size: 11px;&quot;&gt;Evaluation&lt;/font&gt;" style="ellipse;whiteSpace=wrap;html=1;labelBackgroundColor=none;fillColor=#F8CECC;strokeColor=#000000;fontColor=#393C56;" parent="1" vertex="1">
          <mxGeometry x="160" y="-45" width="60" height="40" as="geometry" />
        </mxCell>
        <mxCell id="K2cYPbhZRInxZFROjlgI-1" value="&lt;font style=&quot;font-size: 11px;&quot;&gt;HiringDate&lt;/font&gt;" style="ellipse;whiteSpace=wrap;html=1;labelBackgroundColor=none;fillColor=#F8CECC;strokeColor=#000000;fontColor=#393C56;" parent="1" vertex="1">
          <mxGeometry x="1040" y="176.88" width="55" height="36.25" as="geometry" />
        </mxCell>
        <mxCell id="K2cYPbhZRInxZFROjlgI-5" style="rounded=0;orthogonalLoop=1;jettySize=auto;html=1;entryX=1;entryY=0.5;entryDx=0;entryDy=0;endArrow=none;endFill=0;labelBackgroundColor=none;fontColor=default;strokeColor=#000000;" parent="1" source="K2cYPbhZRInxZFROjlgI-4" target="sjSc6PjK9yt8h6AtYTrf-4" edge="1">
          <mxGeometry relative="1" as="geometry" />
        </mxCell>
        <mxCell id="K2cYPbhZRInxZFROjlgI-4" value="&lt;font style=&quot;font-size: 11px;&quot;&gt;BirthDate&lt;/font&gt;" style="ellipse;whiteSpace=wrap;html=1;labelBackgroundColor=none;fillColor=#F8CECC;strokeColor=#000000;fontColor=#393C56;" parent="1" vertex="1">
          <mxGeometry x="1160" y="390" width="60" height="25" as="geometry" />
        </mxCell>
        <mxCell id="wt7vt2lLQzlReNg-JHcN-7" style="rounded=0;orthogonalLoop=1;jettySize=auto;html=1;endArrow=none;endFill=0;strokeColor=#000000;labelBackgroundColor=none;fontColor=default;" parent="1" source="wt7vt2lLQzlReNg-JHcN-6" edge="1">
          <mxGeometry relative="1" as="geometry">
            <mxPoint x="930" y="540" as="targetPoint" />
          </mxGeometry>
        </mxCell>
        <mxCell id="wt7vt2lLQzlReNg-JHcN-6" value="&lt;span style=&quot;font-size: 11px;&quot;&gt;Graduation-Year&lt;/span&gt;" style="ellipse;whiteSpace=wrap;html=1;labelBackgroundColor=none;fillColor=#F8CECC;strokeColor=#000000;fontColor=#393C56;" parent="1" vertex="1">
          <mxGeometry x="1150" y="470" width="67.5" height="35" as="geometry" />
        </mxCell>
        <mxCell id="wt7vt2lLQzlReNg-JHcN-8" value="&lt;font style=&quot;font-size: 11px;&quot;&gt;Phone&lt;/font&gt;" style="ellipse;shape=doubleEllipse;margin=3;whiteSpace=wrap;html=1;align=center;labelBackgroundColor=none;fillColor=#F8CECC;strokeColor=#000000;fontColor=#393C56;" parent="1" vertex="1">
          <mxGeometry x="970" y="340" width="50" height="30" as="geometry" />
        </mxCell>
        <mxCell id="wt7vt2lLQzlReNg-JHcN-9" value="&lt;font style=&quot;font-size: 11px;&quot;&gt;Phone&lt;/font&gt;" style="ellipse;shape=doubleEllipse;margin=3;whiteSpace=wrap;html=1;align=center;labelBackgroundColor=none;fillColor=#F8CECC;strokeColor=#000000;fontColor=#393C56;" parent="1" vertex="1">
          <mxGeometry x="1060" y="35" width="50" height="40" as="geometry" />
        </mxCell>
        <mxCell id="wt7vt2lLQzlReNg-JHcN-28" value="M" style="text;html=1;strokeColor=none;fillColor=none;align=center;verticalAlign=middle;whiteSpace=wrap;rounded=0;fontColor=#393C56;labelBackgroundColor=none;" parent="1" vertex="1">
          <mxGeometry x="360" y="475" width="20" height="20" as="geometry" />
        </mxCell>
        <mxCell id="wt7vt2lLQzlReNg-JHcN-30" value="" style="rounded=0;orthogonalLoop=1;jettySize=auto;html=1;endArrow=none;endFill=0;startArrow=none;startFill=0;labelBackgroundColor=none;fontColor=default;strokeColor=#000000;exitX=0.5;exitY=1;exitDx=0;exitDy=0;entryX=0.444;entryY=0.083;entryDx=0;entryDy=0;entryPerimeter=0;shape=link;" parent="1" source="XogJSWs-fFkcAVBSwePA-18" target="XogJSWs-fFkcAVBSwePA-17" edge="1">
          <mxGeometry relative="1" as="geometry">
            <mxPoint x="240" y="495" as="sourcePoint" />
            <mxPoint x="190" y="540" as="targetPoint" />
          </mxGeometry>
        </mxCell>
        <mxCell id="wt7vt2lLQzlReNg-JHcN-31" value="1" style="text;html=1;strokeColor=none;fillColor=none;align=center;verticalAlign=middle;whiteSpace=wrap;rounded=0;fontColor=#393C56;labelBackgroundColor=none;" parent="1" vertex="1">
          <mxGeometry x="265" y="472.5" width="20" height="20" as="geometry" />
        </mxCell>
        <mxCell id="wt7vt2lLQzlReNg-JHcN-32" value="1" style="text;html=1;strokeColor=none;fillColor=none;align=center;verticalAlign=middle;whiteSpace=wrap;rounded=0;fontColor=#393C56;labelBackgroundColor=none;" parent="1" vertex="1">
          <mxGeometry x="360" y="176.88" width="20" height="20" as="geometry" />
        </mxCell>
        <mxCell id="wt7vt2lLQzlReNg-JHcN-33" value="1" style="text;html=1;strokeColor=none;fillColor=none;align=center;verticalAlign=middle;whiteSpace=wrap;rounded=0;fontColor=#393C56;rotation=0;labelBackgroundColor=none;" parent="1" vertex="1">
          <mxGeometry x="580" y="457.5" width="20" height="20" as="geometry" />
        </mxCell>
        <mxCell id="wt7vt2lLQzlReNg-JHcN-34" value="1" style="text;html=1;strokeColor=none;fillColor=none;align=center;verticalAlign=middle;whiteSpace=wrap;rounded=0;fontColor=#393C56;labelBackgroundColor=none;" parent="1" vertex="1">
          <mxGeometry x="560" y="165" width="20" height="20" as="geometry" />
        </mxCell>
        <mxCell id="wt7vt2lLQzlReNg-JHcN-35" value="M" style="text;html=1;strokeColor=none;fillColor=none;align=center;verticalAlign=middle;whiteSpace=wrap;rounded=0;fontColor=#393C56;labelBackgroundColor=none;" parent="1" vertex="1">
          <mxGeometry x="655" y="161.88" width="20" height="20" as="geometry" />
        </mxCell>
        <mxCell id="wt7vt2lLQzlReNg-JHcN-37" value="M" style="text;html=1;strokeColor=none;fillColor=none;align=center;verticalAlign=middle;whiteSpace=wrap;rounded=0;fontColor=#393C56;labelBackgroundColor=none;" parent="1" vertex="1">
          <mxGeometry x="270" y="176.88" width="20" height="20" as="geometry" />
        </mxCell>
        <mxCell id="wt7vt2lLQzlReNg-JHcN-39" value="M" style="text;html=1;strokeColor=none;fillColor=none;align=center;verticalAlign=middle;whiteSpace=wrap;rounded=0;fontColor=#393C56;labelBackgroundColor=none;" parent="1" vertex="1">
          <mxGeometry x="170" y="250" width="20" height="20" as="geometry" />
        </mxCell>
        <mxCell id="wt7vt2lLQzlReNg-JHcN-41" value="M" style="text;html=1;strokeColor=none;fillColor=none;align=center;verticalAlign=middle;whiteSpace=wrap;rounded=0;fontColor=#393C56;labelBackgroundColor=none;" parent="1" vertex="1">
          <mxGeometry x="170" y="180" width="20" height="20" as="geometry" />
        </mxCell>
        <mxCell id="wt7vt2lLQzlReNg-JHcN-43" value="M" style="text;html=1;strokeColor=none;fillColor=none;align=center;verticalAlign=middle;whiteSpace=wrap;rounded=0;fontColor=#393C56;labelBackgroundColor=none;" parent="1" vertex="1">
          <mxGeometry x="680" y="460" width="20" height="20" as="geometry" />
        </mxCell>
        <mxCell id="wt7vt2lLQzlReNg-JHcN-44" value="M" style="text;html=1;strokeColor=none;fillColor=none;align=center;verticalAlign=middle;whiteSpace=wrap;rounded=0;fontColor=#393C56;labelBackgroundColor=none;" parent="1" vertex="1">
          <mxGeometry x="410" y="690" width="20" height="20" as="geometry" />
        </mxCell>
        <mxCell id="wt7vt2lLQzlReNg-JHcN-45" value="1" style="text;html=1;strokeColor=none;fillColor=none;align=center;verticalAlign=middle;whiteSpace=wrap;rounded=0;fontColor=#393C56;labelBackgroundColor=none;" parent="1" vertex="1">
          <mxGeometry x="450" y="660" width="20" height="20" as="geometry" />
        </mxCell>
        <mxCell id="wt7vt2lLQzlReNg-JHcN-47" value="M" style="text;html=1;strokeColor=none;fillColor=none;align=center;verticalAlign=middle;whiteSpace=wrap;rounded=0;fontColor=#393C56;labelBackgroundColor=none;" parent="1" vertex="1">
          <mxGeometry x="600" y="60" width="20" height="20" as="geometry" />
        </mxCell>
        <mxCell id="wt7vt2lLQzlReNg-JHcN-49" value="1" style="text;html=1;strokeColor=none;fillColor=none;align=center;verticalAlign=middle;whiteSpace=wrap;rounded=0;fontColor=#393C56;labelBackgroundColor=none;" parent="1" vertex="1">
          <mxGeometry x="660" y="20" width="20" height="20" as="geometry" />
        </mxCell>
        <mxCell id="wt7vt2lLQzlReNg-JHcN-50" value="1" style="text;html=1;strokeColor=none;fillColor=none;align=center;verticalAlign=middle;whiteSpace=wrap;rounded=0;fontColor=#393C56;labelBackgroundColor=none;" parent="1" vertex="1">
          <mxGeometry x="230" y="-82.5" width="20" height="20" as="geometry" />
        </mxCell>
        <mxCell id="wt7vt2lLQzlReNg-JHcN-51" value="M" style="text;html=1;strokeColor=none;fillColor=none;align=center;verticalAlign=middle;whiteSpace=wrap;rounded=0;fontColor=#393C56;labelBackgroundColor=none;" parent="1" vertex="1">
          <mxGeometry x="130" y="-82.5" width="20" height="20" as="geometry" />
        </mxCell>
        <mxCell id="wt7vt2lLQzlReNg-JHcN-54" style="rounded=0;orthogonalLoop=1;jettySize=auto;html=1;strokeColor=#000000;endArrow=none;endFill=0;exitX=0;exitY=0.5;exitDx=0;exitDy=0;entryX=1;entryY=0.75;entryDx=0;entryDy=0;labelBackgroundColor=none;fontColor=default;" parent="1" source="wt7vt2lLQzlReNg-JHcN-53" target="sjSc6PjK9yt8h6AtYTrf-4" edge="1">
          <mxGeometry relative="1" as="geometry">
            <mxPoint x="840" y="500" as="targetPoint" />
          </mxGeometry>
        </mxCell>
        <mxCell id="wt7vt2lLQzlReNg-JHcN-53" value="&lt;font style=&quot;font-size: 11px;&quot;&gt;#FreelnaceJobs&lt;/font&gt;" style="ellipse;whiteSpace=wrap;html=1;labelBackgroundColor=none;fillColor=#F8CECC;strokeColor=#000000;fontColor=#393C56;" parent="1" vertex="1">
          <mxGeometry x="1090" y="510" width="90" height="30" as="geometry" />
        </mxCell>
        <mxCell id="BMZOOyI94QuiM5lB1iNM-4" style="rounded=0;orthogonalLoop=1;jettySize=auto;html=1;entryX=0.578;entryY=0.983;entryDx=0;entryDy=0;entryPerimeter=0;strokeColor=#000000;endArrow=none;endFill=0;exitX=0;exitY=0;exitDx=0;exitDy=0;labelBackgroundColor=none;fontColor=default;" parent="1" source="BMZOOyI94QuiM5lB1iNM-6" target="sjSc6PjK9yt8h6AtYTrf-8" edge="1">
          <mxGeometry relative="1" as="geometry">
            <mxPoint x="207.84508703452047" y="795.0645785423112" as="sourcePoint" />
          </mxGeometry>
        </mxCell>
        <mxCell id="BMZOOyI94QuiM5lB1iNM-6" value="&lt;font style=&quot;font-size: 11px;&quot;&gt;Answer-Choice&lt;/font&gt;" style="ellipse;shape=doubleEllipse;margin=3;whiteSpace=wrap;html=1;align=center;labelBackgroundColor=none;fillColor=#F8CECC;strokeColor=#000000;fontColor=#393C56;" parent="1" vertex="1">
          <mxGeometry x="285" y="740" width="60" height="40" as="geometry" />
        </mxCell>
        <mxCell id="BMZOOyI94QuiM5lB1iNM-16" style="rounded=0;orthogonalLoop=1;jettySize=auto;html=1;entryX=0.5;entryY=1;entryDx=0;entryDy=0;strokeColor=#000000;endArrow=none;endFill=0;labelBackgroundColor=none;fontColor=default;" parent="1" source="BMZOOyI94QuiM5lB1iNM-13" target="AFVBEa2lu6-2GRhfA7ZJ-161" edge="1">
          <mxGeometry relative="1" as="geometry">
            <mxPoint x="580" y="750" as="targetPoint" />
          </mxGeometry>
        </mxCell>
        <mxCell id="BMZOOyI94QuiM5lB1iNM-13" value="&lt;font style=&quot;font-size: 11px;&quot;&gt;St-Answer&lt;/font&gt;" style="ellipse;whiteSpace=wrap;html=1;labelBackgroundColor=none;fillColor=#F2CC8F;strokeColor=#000000;fontColor=#393C56;" parent="1" vertex="1">
          <mxGeometry x="410" y="740" width="60" height="40" as="geometry" />
        </mxCell>
        <mxCell id="BMZOOyI94QuiM5lB1iNM-19" value="M" style="text;html=1;strokeColor=none;fillColor=none;align=center;verticalAlign=middle;whiteSpace=wrap;rounded=0;fontColor=#393C56;labelBackgroundColor=none;" parent="1" vertex="1">
          <mxGeometry x="510" y="690" width="20" height="20" as="geometry" />
        </mxCell>
        <mxCell id="BMZOOyI94QuiM5lB1iNM-21" style="rounded=0;orthogonalLoop=1;jettySize=auto;html=1;strokeColor=#000000;endArrow=none;endFill=0;labelBackgroundColor=none;fontColor=default;entryX=0.75;entryY=0;entryDx=0;entryDy=0;" parent="1" source="BMZOOyI94QuiM5lB1iNM-20" target="sjSc6PjK9yt8h6AtYTrf-6" edge="1">
          <mxGeometry relative="1" as="geometry">
            <mxPoint x="470" y="440" as="targetPoint" />
          </mxGeometry>
        </mxCell>
        <mxCell id="BMZOOyI94QuiM5lB1iNM-20" value="&lt;span style=&quot;font-size: 11px;&quot;&gt;Fullmark&lt;br&gt;&lt;/span&gt;" style="ellipse;whiteSpace=wrap;html=1;labelBackgroundColor=none;fillColor=#F8CECC;strokeColor=#000000;fontColor=#393C56;" parent="1" vertex="1">
          <mxGeometry x="470" y="360" width="50" height="35" as="geometry" />
        </mxCell>
        <mxCell id="BMZOOyI94QuiM5lB1iNM-24" style="rounded=0;orthogonalLoop=1;jettySize=auto;html=1;entryX=0.5;entryY=1;entryDx=0;entryDy=0;strokeColor=#000000;endArrow=none;endFill=0;labelBackgroundColor=none;fontColor=default;" parent="1" source="BMZOOyI94QuiM5lB1iNM-23" target="AFVBEa2lu6-2GRhfA7ZJ-161" edge="1">
          <mxGeometry relative="1" as="geometry" />
        </mxCell>
        <mxCell id="BMZOOyI94QuiM5lB1iNM-23" value="&lt;font style=&quot;font-size: 11px;&quot;&gt;Grade&lt;/font&gt;" style="ellipse;whiteSpace=wrap;html=1;dashed=1;labelBackgroundColor=none;fillColor=#F2CC8F;strokeColor=#000000;fontColor=#393C56;" parent="1" vertex="1">
          <mxGeometry x="470" y="740" width="60" height="40" as="geometry" />
        </mxCell>
        <mxCell id="BMZOOyI94QuiM5lB1iNM-34" value="Teaches" style="rhombus;whiteSpace=wrap;html=1;rotation=0;labelBackgroundColor=none;fillColor=#FFF2CC;strokeColor=#000000;fontColor=#393C56;" parent="1" vertex="1">
          <mxGeometry x="150" y="-120" width="80" height="60" as="geometry" />
        </mxCell>
        <mxCell id="E_pe6YxIyCe0430A1qZB-4" style="rounded=0;orthogonalLoop=1;jettySize=auto;html=1;entryX=0.5;entryY=0;entryDx=0;entryDy=0;endArrow=none;endFill=0;strokeColor=#000000;labelBackgroundColor=none;fontColor=default;" parent="1" source="E_pe6YxIyCe0430A1qZB-1" target="AFVBEa2lu6-2GRhfA7ZJ-40" edge="1">
          <mxGeometry relative="1" as="geometry" />
        </mxCell>
        <mxCell id="E_pe6YxIyCe0430A1qZB-1" value="&lt;font style=&quot;font-size: 11px;&quot;&gt;City&lt;/font&gt;" style="ellipse;whiteSpace=wrap;html=1;labelBackgroundColor=none;fillColor=#F8CECC;strokeColor=#000000;fontColor=#393C56;" parent="1" vertex="1">
          <mxGeometry x="957.5" y="-80" width="50" height="30" as="geometry" />
        </mxCell>
        <mxCell id="E_pe6YxIyCe0430A1qZB-5" style="rounded=0;orthogonalLoop=1;jettySize=auto;html=1;entryX=1;entryY=0;entryDx=0;entryDy=0;endArrow=none;endFill=0;strokeColor=#000000;labelBackgroundColor=none;fontColor=default;" parent="1" source="E_pe6YxIyCe0430A1qZB-2" target="AFVBEa2lu6-2GRhfA7ZJ-40" edge="1">
          <mxGeometry relative="1" as="geometry" />
        </mxCell>
        <mxCell id="E_pe6YxIyCe0430A1qZB-2" value="&lt;font style=&quot;font-size: 11px;&quot;&gt;Street&lt;/font&gt;" style="ellipse;whiteSpace=wrap;html=1;labelBackgroundColor=none;fillColor=#F8CECC;strokeColor=#000000;fontColor=#393C56;" parent="1" vertex="1">
          <mxGeometry x="1010" y="-90" width="45" height="30" as="geometry" />
        </mxCell>
        <mxCell id="E_pe6YxIyCe0430A1qZB-6" style="rounded=0;orthogonalLoop=1;jettySize=auto;html=1;entryX=1;entryY=0.5;entryDx=0;entryDy=0;endArrow=none;endFill=0;strokeColor=#000000;labelBackgroundColor=none;fontColor=default;" parent="1" source="E_pe6YxIyCe0430A1qZB-3" target="AFVBEa2lu6-2GRhfA7ZJ-40" edge="1">
          <mxGeometry relative="1" as="geometry" />
        </mxCell>
        <mxCell id="E_pe6YxIyCe0430A1qZB-3" value="&lt;font style=&quot;font-size: 11px;&quot;&gt;Zip-Code&lt;/font&gt;" style="ellipse;whiteSpace=wrap;html=1;labelBackgroundColor=none;fillColor=#F8CECC;strokeColor=#000000;fontColor=#393C56;" parent="1" vertex="1">
          <mxGeometry x="1040" y="-60" width="50" height="30" as="geometry" />
        </mxCell>
        <mxCell id="E_pe6YxIyCe0430A1qZB-9" style="rounded=0;orthogonalLoop=1;jettySize=auto;html=1;strokeColor=#000000;endArrow=none;endFill=0;labelBackgroundColor=none;fontColor=default;" parent="1" source="E_pe6YxIyCe0430A1qZB-7" target="AFVBEa2lu6-2GRhfA7ZJ-37" edge="1">
          <mxGeometry relative="1" as="geometry" />
        </mxCell>
        <mxCell id="E_pe6YxIyCe0430A1qZB-7" value="&lt;font style=&quot;font-size: 11px;&quot;&gt;Fname&lt;/font&gt;" style="ellipse;whiteSpace=wrap;html=1;labelBackgroundColor=none;fillColor=#F8CECC;strokeColor=#000000;fontColor=#393C56;" parent="1" vertex="1">
          <mxGeometry x="845" y="-110" width="50" height="30" as="geometry" />
        </mxCell>
        <mxCell id="E_pe6YxIyCe0430A1qZB-8" value="&lt;font style=&quot;font-size: 11px;&quot;&gt;Lname&lt;/font&gt;" style="ellipse;whiteSpace=wrap;html=1;labelBackgroundColor=none;fillColor=#F8CECC;strokeColor=#000000;fontColor=#393C56;" parent="1" vertex="1">
          <mxGeometry x="900" y="-110" width="50" height="30" as="geometry" />
        </mxCell>
        <mxCell id="E_pe6YxIyCe0430A1qZB-10" style="rounded=0;orthogonalLoop=1;jettySize=auto;html=1;strokeColor=#000000;endArrow=none;endFill=0;entryX=0.5;entryY=0;entryDx=0;entryDy=0;labelBackgroundColor=none;fontColor=default;" parent="1" source="E_pe6YxIyCe0430A1qZB-8" target="AFVBEa2lu6-2GRhfA7ZJ-37" edge="1">
          <mxGeometry relative="1" as="geometry">
            <mxPoint x="910" y="-50" as="targetPoint" />
          </mxGeometry>
        </mxCell>
        <mxCell id="E_pe6YxIyCe0430A1qZB-16" style="rounded=0;orthogonalLoop=1;jettySize=auto;html=1;entryX=1;entryY=0.25;entryDx=0;entryDy=0;strokeColor=#000000;endArrow=none;endFill=0;labelBackgroundColor=none;fontColor=default;" parent="1" source="E_pe6YxIyCe0430A1qZB-11" target="sjSc6PjK9yt8h6AtYTrf-4" edge="1">
          <mxGeometry relative="1" as="geometry" />
        </mxCell>
        <mxCell id="E_pe6YxIyCe0430A1qZB-11" value="&lt;font style=&quot;font-size: 11px;&quot;&gt;Address&lt;/font&gt;" style="ellipse;whiteSpace=wrap;html=1;labelBackgroundColor=none;fillColor=#F8CECC;strokeColor=#000000;fontColor=#393C56;" parent="1" vertex="1">
          <mxGeometry x="1030" y="330" width="50" height="30" as="geometry" />
        </mxCell>
        <mxCell id="E_pe6YxIyCe0430A1qZB-14" style="rounded=0;orthogonalLoop=1;jettySize=auto;html=1;entryX=0.5;entryY=0;entryDx=0;entryDy=0;strokeColor=#000000;endArrow=none;endFill=0;labelBackgroundColor=none;fontColor=default;" parent="1" source="E_pe6YxIyCe0430A1qZB-12" target="AFVBEa2lu6-2GRhfA7ZJ-75" edge="1">
          <mxGeometry relative="1" as="geometry" />
        </mxCell>
        <mxCell id="E_pe6YxIyCe0430A1qZB-12" value="&lt;font style=&quot;font-size: 11px;&quot;&gt;Fname&lt;/font&gt;" style="ellipse;whiteSpace=wrap;html=1;labelBackgroundColor=none;fillColor=#F8CECC;strokeColor=#000000;fontColor=#393C56;" parent="1" vertex="1">
          <mxGeometry x="860" y="340" width="40" height="30" as="geometry" />
        </mxCell>
        <mxCell id="E_pe6YxIyCe0430A1qZB-15" style="rounded=0;orthogonalLoop=1;jettySize=auto;html=1;entryX=0.5;entryY=0;entryDx=0;entryDy=0;strokeColor=#000000;endArrow=none;endFill=0;labelBackgroundColor=none;fontColor=default;" parent="1" source="E_pe6YxIyCe0430A1qZB-13" target="AFVBEa2lu6-2GRhfA7ZJ-75" edge="1">
          <mxGeometry relative="1" as="geometry" />
        </mxCell>
        <mxCell id="E_pe6YxIyCe0430A1qZB-13" value="&lt;font style=&quot;font-size: 11px;&quot;&gt;Lname&lt;/font&gt;" style="ellipse;whiteSpace=wrap;html=1;labelBackgroundColor=none;fillColor=#F8CECC;strokeColor=#000000;fontColor=#393C56;" parent="1" vertex="1">
          <mxGeometry x="900" y="330" width="40" height="30" as="geometry" />
        </mxCell>
        <mxCell id="E_pe6YxIyCe0430A1qZB-20" style="rounded=0;orthogonalLoop=1;jettySize=auto;html=1;entryX=1;entryY=0;entryDx=0;entryDy=0;strokeColor=#000000;endArrow=none;endFill=0;labelBackgroundColor=none;fontColor=default;" parent="1" source="E_pe6YxIyCe0430A1qZB-17" target="E_pe6YxIyCe0430A1qZB-11" edge="1">
          <mxGeometry relative="1" as="geometry" />
        </mxCell>
        <mxCell id="E_pe6YxIyCe0430A1qZB-17" value="&lt;font style=&quot;font-size: 11px;&quot;&gt;City&lt;/font&gt;" style="ellipse;whiteSpace=wrap;html=1;labelBackgroundColor=none;fillColor=#F8CECC;strokeColor=#000000;fontColor=#393C56;" parent="1" vertex="1">
          <mxGeometry x="1030" y="285" width="30" height="30" as="geometry" />
        </mxCell>
        <mxCell id="E_pe6YxIyCe0430A1qZB-21" style="rounded=0;orthogonalLoop=1;jettySize=auto;html=1;entryX=1;entryY=0;entryDx=0;entryDy=0;strokeColor=#000000;endArrow=none;endFill=0;labelBackgroundColor=none;fontColor=default;" parent="1" source="E_pe6YxIyCe0430A1qZB-18" target="E_pe6YxIyCe0430A1qZB-11" edge="1">
          <mxGeometry relative="1" as="geometry" />
        </mxCell>
        <mxCell id="E_pe6YxIyCe0430A1qZB-18" value="&lt;font style=&quot;font-size: 11px;&quot;&gt;Street&lt;/font&gt;" style="ellipse;whiteSpace=wrap;html=1;labelBackgroundColor=none;fillColor=#F8CECC;strokeColor=#000000;fontColor=#393C56;" parent="1" vertex="1">
          <mxGeometry x="1060" y="267.5" width="40" height="30" as="geometry" />
        </mxCell>
        <mxCell id="E_pe6YxIyCe0430A1qZB-22" style="rounded=0;orthogonalLoop=1;jettySize=auto;html=1;endArrow=none;endFill=0;strokeColor=#000000;entryX=1;entryY=0;entryDx=0;entryDy=0;labelBackgroundColor=none;fontColor=default;" parent="1" source="E_pe6YxIyCe0430A1qZB-19" target="E_pe6YxIyCe0430A1qZB-11" edge="1">
          <mxGeometry relative="1" as="geometry">
            <mxPoint x="1050" y="340" as="targetPoint" />
          </mxGeometry>
        </mxCell>
        <mxCell id="E_pe6YxIyCe0430A1qZB-19" value="&lt;font style=&quot;font-size: 11px;&quot;&gt;Zip-Code&lt;/font&gt;" style="ellipse;whiteSpace=wrap;html=1;labelBackgroundColor=none;fillColor=#F8CECC;strokeColor=#000000;fontColor=#393C56;" parent="1" vertex="1">
          <mxGeometry x="1090" y="290" width="50" height="30" as="geometry" />
        </mxCell>
        <mxCell id="E_pe6YxIyCe0430A1qZB-23" value="Certificates" style="rounded=1;whiteSpace=wrap;html=1;labelBackgroundColor=none;fillColor=#B0E3E6;strokeColor=#000000;fontColor=#393C56;" parent="1" vertex="1">
          <mxGeometry x="720" y="700" width="90" height="60" as="geometry" />
        </mxCell>
        <mxCell id="E_pe6YxIyCe0430A1qZB-29" value="&lt;span style=&quot;font-size: 11px;&quot;&gt;&lt;u&gt;Cr-ID&lt;/u&gt;&lt;/span&gt;" style="ellipse;whiteSpace=wrap;html=1;labelBackgroundColor=none;fillColor=#F2CC8F;strokeColor=#000000;fontColor=#393C56;" parent="1" vertex="1">
          <mxGeometry x="650" y="730" width="60" height="40" as="geometry" />
        </mxCell>
        <mxCell id="E_pe6YxIyCe0430A1qZB-30" value="&lt;font style=&quot;font-size: 11px;&quot;&gt;Cr-Name&lt;/font&gt;" style="ellipse;whiteSpace=wrap;html=1;labelBackgroundColor=none;fillColor=#F2CC8F;strokeColor=#000000;fontColor=#393C56;" parent="1" vertex="1">
          <mxGeometry x="640" y="780" width="60" height="40" as="geometry" />
        </mxCell>
        <mxCell id="E_pe6YxIyCe0430A1qZB-31" value="&lt;font style=&quot;font-size: 11px;&quot;&gt;Acquired-Date&lt;/font&gt;" style="ellipse;whiteSpace=wrap;html=1;labelBackgroundColor=none;fillColor=#F2CC8F;strokeColor=#000000;fontColor=#393C56;" parent="1" vertex="1">
          <mxGeometry x="700" y="800" width="55" height="40" as="geometry" />
        </mxCell>
        <mxCell id="E_pe6YxIyCe0430A1qZB-37" value="Get" style="rhombus;whiteSpace=wrap;html=1;labelBackgroundColor=none;fillColor=#FFF2CC;strokeColor=#000000;fontColor=#393C56;" parent="1" vertex="1">
          <mxGeometry x="730" y="620" width="80" height="50" as="geometry" />
        </mxCell>
        <mxCell id="E_pe6YxIyCe0430A1qZB-39" value="1" style="text;html=1;strokeColor=none;fillColor=none;align=center;verticalAlign=middle;whiteSpace=wrap;rounded=0;fontColor=#393C56;labelBackgroundColor=none;" parent="1" vertex="1">
          <mxGeometry x="810" y="620" width="20" height="20" as="geometry" />
        </mxCell>
        <mxCell id="E_pe6YxIyCe0430A1qZB-43" value="Faculties" style="rounded=1;whiteSpace=wrap;html=1;labelBackgroundColor=none;fillColor=#B0E3E6;strokeColor=#000000;fontColor=#393C56;" parent="1" vertex="1">
          <mxGeometry x="630" y="295" width="90" height="60" as="geometry" />
        </mxCell>
        <mxCell id="E_pe6YxIyCe0430A1qZB-46" style="rounded=0;orthogonalLoop=1;jettySize=auto;html=1;entryX=0.126;entryY=-0.028;entryDx=0;entryDy=0;entryPerimeter=0;strokeColor=#000000;endArrow=none;endFill=0;exitX=0.5;exitY=1;exitDx=0;exitDy=0;shape=link;edgeStyle=orthogonalEdgeStyle;labelBackgroundColor=none;fontColor=default;" parent="1" source="E_pe6YxIyCe0430A1qZB-48" target="sjSc6PjK9yt8h6AtYTrf-4" edge="1">
          <mxGeometry relative="1" as="geometry">
            <Array as="points">
              <mxPoint x="740" y="470" />
              <mxPoint x="851" y="470" />
            </Array>
          </mxGeometry>
        </mxCell>
        <mxCell id="E_pe6YxIyCe0430A1qZB-49" value="" style="rounded=0;orthogonalLoop=1;jettySize=auto;html=1;entryX=0.5;entryY=0;entryDx=0;entryDy=0;strokeColor=#000000;endArrow=none;endFill=0;shape=link;exitX=0.5;exitY=1;exitDx=0;exitDy=0;edgeStyle=orthogonalEdgeStyle;labelBackgroundColor=none;fontColor=default;" parent="1" source="E_pe6YxIyCe0430A1qZB-43" target="E_pe6YxIyCe0430A1qZB-48" edge="1">
          <mxGeometry relative="1" as="geometry">
            <mxPoint x="670" y="350" as="sourcePoint" />
            <mxPoint x="756" y="448" as="targetPoint" />
          </mxGeometry>
        </mxCell>
        <mxCell id="E_pe6YxIyCe0430A1qZB-48" value="Graduated" style="rhombus;whiteSpace=wrap;html=1;labelBackgroundColor=none;fillColor=#FFF2CC;strokeColor=#000000;fontColor=#393C56;" parent="1" vertex="1">
          <mxGeometry x="700" y="392.5" width="80" height="50" as="geometry" />
        </mxCell>
        <mxCell id="E_pe6YxIyCe0430A1qZB-50" value="M" style="text;html=1;strokeColor=none;fillColor=none;align=center;verticalAlign=middle;whiteSpace=wrap;rounded=0;fontColor=#393C56;labelBackgroundColor=none;" parent="1" vertex="1">
          <mxGeometry x="745" y="440" width="20" height="20" as="geometry" />
        </mxCell>
        <mxCell id="E_pe6YxIyCe0430A1qZB-51" value="1" style="text;html=1;strokeColor=none;fillColor=none;align=center;verticalAlign=middle;whiteSpace=wrap;rounded=0;fontColor=#393C56;labelBackgroundColor=none;" parent="1" vertex="1">
          <mxGeometry x="745" y="377.5" width="20" height="20" as="geometry" />
        </mxCell>
        <mxCell id="E_pe6YxIyCe0430A1qZB-56" style="rounded=0;orthogonalLoop=1;jettySize=auto;html=1;entryX=0.367;entryY=-0.006;entryDx=0;entryDy=0;strokeColor=#000000;endArrow=none;endFill=0;entryPerimeter=0;labelBackgroundColor=none;fontColor=default;" parent="1" source="E_pe6YxIyCe0430A1qZB-52" target="E_pe6YxIyCe0430A1qZB-43" edge="1">
          <mxGeometry relative="1" as="geometry" />
        </mxCell>
        <mxCell id="E_pe6YxIyCe0430A1qZB-52" value="&lt;font style=&quot;font-size: 11px;&quot;&gt;&lt;u&gt;Fcode&lt;/u&gt;&lt;/font&gt;" style="ellipse;whiteSpace=wrap;html=1;labelBackgroundColor=none;fillColor=#F8CECC;strokeColor=#000000;fontColor=#393C56;" parent="1" vertex="1">
          <mxGeometry x="600" y="240" width="60" height="30" as="geometry" />
        </mxCell>
        <mxCell id="E_pe6YxIyCe0430A1qZB-60" value="" style="rounded=0;orthogonalLoop=1;jettySize=auto;html=1;strokeColor=#000000;endArrow=none;endFill=0;shape=link;entryX=0.5;entryY=1;entryDx=0;entryDy=0;labelBackgroundColor=none;fontColor=default;" parent="1" target="E_pe6YxIyCe0430A1qZB-37" edge="1">
          <mxGeometry relative="1" as="geometry">
            <mxPoint x="770" y="700" as="sourcePoint" />
            <mxPoint x="670" y="680" as="targetPoint" />
          </mxGeometry>
        </mxCell>
        <mxCell id="E_pe6YxIyCe0430A1qZB-62" value="M" style="text;html=1;strokeColor=none;fillColor=none;align=center;verticalAlign=middle;whiteSpace=wrap;rounded=0;fontColor=#393C56;labelBackgroundColor=none;" parent="1" vertex="1">
          <mxGeometry x="750" y="670" width="20" height="20" as="geometry" />
        </mxCell>
        <mxCell id="E_pe6YxIyCe0430A1qZB-65" style="rounded=0;orthogonalLoop=1;jettySize=auto;html=1;strokeColor=#000000;endArrow=none;endFill=0;shape=link;entryX=0.078;entryY=-0.017;entryDx=0;entryDy=0;entryPerimeter=0;labelBackgroundColor=none;fontColor=default;" parent="1" source="E_pe6YxIyCe0430A1qZB-64" target="sjSc6PjK9yt8h6AtYTrf-3" edge="1">
          <mxGeometry relative="1" as="geometry">
            <mxPoint x="780" y="90" as="targetPoint" />
            <Array as="points">
              <mxPoint x="797" y="-42" />
            </Array>
          </mxGeometry>
        </mxCell>
        <mxCell id="E_pe6YxIyCe0430A1qZB-66" style="rounded=0;orthogonalLoop=1;jettySize=auto;html=1;strokeColor=#000000;endArrow=none;endFill=0;entryX=1;entryY=0.25;entryDx=0;entryDy=0;exitX=0;exitY=0.5;exitDx=0;exitDy=0;shape=link;labelBackgroundColor=none;fontColor=default;" parent="1" source="E_pe6YxIyCe0430A1qZB-64" target="sjSc6PjK9yt8h6AtYTrf-5" edge="1">
          <mxGeometry relative="1" as="geometry">
            <mxPoint x="180" y="260" as="targetPoint" />
            <Array as="points">
              <mxPoint x="360" y="-40" />
              <mxPoint x="310" y="50" />
            </Array>
          </mxGeometry>
        </mxCell>
        <mxCell id="E_pe6YxIyCe0430A1qZB-64" value="Supervise" style="rhombus;whiteSpace=wrap;html=1;labelBackgroundColor=none;fillColor=#FFF2CC;strokeColor=#000000;fontColor=#393C56;" parent="1" vertex="1">
          <mxGeometry x="460" y="-67.5" width="80" height="50" as="geometry" />
        </mxCell>
        <mxCell id="E_pe6YxIyCe0430A1qZB-67" value="1" style="text;html=1;strokeColor=none;fillColor=none;align=center;verticalAlign=middle;whiteSpace=wrap;rounded=0;fontColor=#393C56;labelBackgroundColor=none;" parent="1" vertex="1">
          <mxGeometry x="540" y="-60" width="20" height="20" as="geometry" />
        </mxCell>
        <mxCell id="E_pe6YxIyCe0430A1qZB-68" value="M" style="text;html=1;strokeColor=none;fillColor=none;align=center;verticalAlign=middle;whiteSpace=wrap;rounded=0;fontColor=#393C56;labelBackgroundColor=none;" parent="1" vertex="1">
          <mxGeometry x="440" y="-62.5" width="20" height="20" as="geometry" />
        </mxCell>
        <mxCell id="XogJSWs-fFkcAVBSwePA-5" style="rounded=0;orthogonalLoop=1;jettySize=auto;html=1;entryX=0;entryY=0.5;entryDx=0;entryDy=0;endArrow=none;endFill=0;labelBackgroundColor=none;strokeColor=#000000;fontColor=default;" parent="1" source="E_pe6YxIyCe0430A1qZB-70" target="sjSc6PjK9yt8h6AtYTrf-5" edge="1">
          <mxGeometry relative="1" as="geometry" />
        </mxCell>
        <mxCell id="E_pe6YxIyCe0430A1qZB-70" value="&lt;span style=&quot;font-size: 11px;&quot;&gt;T-Manager&lt;/span&gt;" style="ellipse;whiteSpace=wrap;html=1;labelBackgroundColor=none;fillColor=#F8CECC;strokeColor=#000000;fontColor=#393C56;" parent="1" vertex="1">
          <mxGeometry x="60" y="90" width="60" height="40" as="geometry" />
        </mxCell>
        <mxCell id="E_pe6YxIyCe0430A1qZB-77" value="&lt;font style=&quot;font-size: 11px;&quot;&gt;Manger-Name&lt;/font&gt;" style="ellipse;whiteSpace=wrap;html=1;labelBackgroundColor=none;fillColor=#F8CECC;strokeColor=#000000;fontColor=#393C56;" parent="1" vertex="1">
          <mxGeometry x="500" y="90" width="60" height="40" as="geometry" />
        </mxCell>
        <mxCell id="E_pe6YxIyCe0430A1qZB-78" style="rounded=0;orthogonalLoop=1;jettySize=auto;html=1;entryX=0.863;entryY=0.011;entryDx=0;entryDy=0;entryPerimeter=0;strokeColor=#000000;endArrow=none;endFill=0;labelBackgroundColor=none;fontColor=default;" parent="1" source="E_pe6YxIyCe0430A1qZB-77" target="sjSc6PjK9yt8h6AtYTrf-2" edge="1">
          <mxGeometry relative="1" as="geometry" />
        </mxCell>
        <mxCell id="E_pe6YxIyCe0430A1qZB-82" value="" style="rounded=0;whiteSpace=wrap;html=1;strokeColor=none;labelBackgroundColor=none;fillColor=none;fontColor=#393C56;" parent="1" vertex="1">
          <mxGeometry x="-60" y="-280" width="1285" height="10" as="geometry" />
        </mxCell>
        <mxCell id="E_pe6YxIyCe0430A1qZB-83" value="" style="rounded=0;whiteSpace=wrap;html=1;strokeColor=none;labelBackgroundColor=none;fillColor=none;fontColor=#393C56;" parent="1" vertex="1">
          <mxGeometry x="-120" y="-170" width="10" height="1120" as="geometry" />
        </mxCell>
        <mxCell id="E_pe6YxIyCe0430A1qZB-84" value="" style="rounded=0;whiteSpace=wrap;html=1;strokeColor=none;labelBackgroundColor=none;fillColor=none;fontColor=#393C56;" parent="1" vertex="1">
          <mxGeometry x="1240" y="-220" width="20" height="1160" as="geometry" />
        </mxCell>
        <mxCell id="E_pe6YxIyCe0430A1qZB-85" value="" style="rounded=0;whiteSpace=wrap;html=1;strokeColor=none;labelBackgroundColor=none;fillColor=none;fontColor=#393C56;" parent="1" vertex="1">
          <mxGeometry x="-17.5" y="1060" width="1200" height="17.5" as="geometry" />
        </mxCell>
        <mxCell id="AFVBEa2lu6-2GRhfA7ZJ-141" value="Contains" style="rhombus;whiteSpace=wrap;html=1;labelBackgroundColor=none;fillColor=#FFF2CC;strokeColor=#000000;fontColor=#393C56;" parent="1" vertex="1">
          <mxGeometry x="155" y="200" width="80" height="50" as="geometry" />
        </mxCell>
        <mxCell id="XogJSWs-fFkcAVBSwePA-13" style="rounded=0;orthogonalLoop=1;jettySize=auto;html=1;entryX=0.5;entryY=1;entryDx=0;entryDy=0;endArrow=none;endFill=0;exitX=0.5;exitY=0;exitDx=0;exitDy=0;shape=link;labelBackgroundColor=none;strokeColor=#000000;fontColor=default;" parent="1" source="sjSc6PjK9yt8h6AtYTrf-7" target="AFVBEa2lu6-2GRhfA7ZJ-141" edge="1">
          <mxGeometry relative="1" as="geometry">
            <mxPoint x="195" y="245" as="sourcePoint" />
          </mxGeometry>
        </mxCell>
        <mxCell id="XogJSWs-fFkcAVBSwePA-17" value="Topics" style="rounded=1;whiteSpace=wrap;html=1;labelBackgroundColor=none;fillColor=#B0E3E6;strokeColor=#000000;fontColor=#393C56;" parent="1" vertex="1">
          <mxGeometry x="155" y="545" width="90" height="60" as="geometry" />
        </mxCell>
        <mxCell id="XogJSWs-fFkcAVBSwePA-19" value="" style="rounded=0;orthogonalLoop=1;jettySize=auto;html=1;endArrow=none;endFill=0;startArrow=none;startFill=0;labelBackgroundColor=none;fontColor=default;strokeColor=#000000;exitX=0.5;exitY=1;exitDx=0;exitDy=0;shape=link;" parent="1" source="sjSc6PjK9yt8h6AtYTrf-7" target="XogJSWs-fFkcAVBSwePA-18" edge="1">
          <mxGeometry relative="1" as="geometry">
            <mxPoint x="180" y="370" as="sourcePoint" />
            <mxPoint x="195" y="490" as="targetPoint" />
          </mxGeometry>
        </mxCell>
        <mxCell id="XogJSWs-fFkcAVBSwePA-18" value="Have" style="rhombus;whiteSpace=wrap;html=1;labelBackgroundColor=none;fillColor=#FFF2CC;strokeColor=#000000;fontColor=#393C56;" parent="1" vertex="1">
          <mxGeometry x="155" y="452.5" width="80" height="50" as="geometry" />
        </mxCell>
        <mxCell id="XogJSWs-fFkcAVBSwePA-20" style="edgeStyle=orthogonalEdgeStyle;rounded=0;orthogonalLoop=1;jettySize=auto;html=1;exitX=0.5;exitY=1;exitDx=0;exitDy=0;labelBackgroundColor=none;strokeColor=#000000;fontColor=default;" parent="1" source="AFVBEa2lu6-2GRhfA7ZJ-31" target="AFVBEa2lu6-2GRhfA7ZJ-31" edge="1">
          <mxGeometry relative="1" as="geometry" />
        </mxCell>
        <mxCell id="XogJSWs-fFkcAVBSwePA-26" style="rounded=0;orthogonalLoop=1;jettySize=auto;html=1;endArrow=none;endFill=0;labelBackgroundColor=none;strokeColor=#000000;fontColor=default;entryX=0;entryY=0.5;entryDx=0;entryDy=0;" parent="1" source="XogJSWs-fFkcAVBSwePA-21" target="XogJSWs-fFkcAVBSwePA-17" edge="1">
          <mxGeometry relative="1" as="geometry">
            <mxPoint x="160" y="620" as="targetPoint" />
          </mxGeometry>
        </mxCell>
        <mxCell id="XogJSWs-fFkcAVBSwePA-21" value="&lt;font style=&quot;font-size: 11px;&quot;&gt;Topic-Name&lt;/font&gt;" style="ellipse;whiteSpace=wrap;html=1;labelBackgroundColor=none;fillColor=#F8CECC;strokeColor=#000000;fontColor=#393C56;" parent="1" vertex="1">
          <mxGeometry x="80" y="580" width="60" height="40" as="geometry" />
        </mxCell>
        <mxCell id="XogJSWs-fFkcAVBSwePA-25" style="rounded=0;orthogonalLoop=1;jettySize=auto;html=1;entryX=0;entryY=0.5;entryDx=0;entryDy=0;endArrow=none;endFill=0;labelBackgroundColor=none;strokeColor=#000000;fontColor=default;" parent="1" source="XogJSWs-fFkcAVBSwePA-23" target="XogJSWs-fFkcAVBSwePA-17" edge="1">
          <mxGeometry relative="1" as="geometry">
            <mxPoint x="120" y="550" as="sourcePoint" />
          </mxGeometry>
        </mxCell>
        <mxCell id="XogJSWs-fFkcAVBSwePA-23" value="&lt;u style=&quot;&quot;&gt;&lt;font style=&quot;font-size: 11px;&quot;&gt;Topic-ID&lt;/font&gt;&lt;/u&gt;" style="ellipse;whiteSpace=wrap;html=1;labelBackgroundColor=none;fillColor=#F8CECC;strokeColor=#000000;fontColor=#393C56;" parent="1" vertex="1">
          <mxGeometry x="90" y="530" width="60" height="40" as="geometry" />
        </mxCell>
        <mxCell id="XogJSWs-fFkcAVBSwePA-44" value="Enrolled-In" style="rhombus;whiteSpace=wrap;html=1;labelBackgroundColor=none;fillColor=#FFF2CC;strokeColor=#000000;fontColor=#393C56;" parent="1" vertex="1">
          <mxGeometry x="530" y="505" width="80" height="50" as="geometry" />
        </mxCell>
        <mxCell id="XogJSWs-fFkcAVBSwePA-47" style="rounded=0;orthogonalLoop=1;jettySize=auto;html=1;entryX=0;entryY=0.5;entryDx=0;entryDy=0;exitX=1;exitY=0.5;exitDx=0;exitDy=0;endArrow=none;endFill=0;shape=link;labelBackgroundColor=none;strokeColor=#000000;fontColor=default;" parent="1" source="XogJSWs-fFkcAVBSwePA-44" target="sjSc6PjK9yt8h6AtYTrf-4" edge="1">
          <mxGeometry relative="1" as="geometry" />
        </mxCell>
        <mxCell id="XogJSWs-fFkcAVBSwePA-49" value="M" style="text;html=1;strokeColor=none;fillColor=none;align=center;verticalAlign=middle;whiteSpace=wrap;rounded=0;fontColor=#393C56;labelBackgroundColor=none;" parent="1" vertex="1">
          <mxGeometry x="610" y="510" width="20" height="20" as="geometry" />
        </mxCell>
        <mxCell id="XogJSWs-fFkcAVBSwePA-50" value="1" style="text;html=1;strokeColor=none;fillColor=none;align=center;verticalAlign=middle;whiteSpace=wrap;rounded=0;fontColor=#393C56;labelBackgroundColor=none;" parent="1" vertex="1">
          <mxGeometry x="530" y="490" width="20" height="20" as="geometry" />
        </mxCell>
        <mxCell id="XogJSWs-fFkcAVBSwePA-66" value="M" style="text;html=1;strokeColor=none;fillColor=none;align=center;verticalAlign=middle;whiteSpace=wrap;rounded=0;fontColor=#393C56;labelBackgroundColor=none;" parent="1" vertex="1">
          <mxGeometry x="175" y="502.5" width="20" height="20" as="geometry" />
        </mxCell>
        <mxCell id="XogJSWs-fFkcAVBSwePA-67" value="1" style="text;html=1;strokeColor=none;fillColor=none;align=center;verticalAlign=middle;whiteSpace=wrap;rounded=0;fontColor=#393C56;labelBackgroundColor=none;" parent="1" vertex="1">
          <mxGeometry x="175" y="440" width="20" height="20" as="geometry" />
        </mxCell>
        <mxCell id="XogJSWs-fFkcAVBSwePA-70" style="rounded=0;orthogonalLoop=1;jettySize=auto;html=1;endArrow=none;endFill=0;exitX=0.5;exitY=0;exitDx=0;exitDy=0;labelBackgroundColor=none;strokeColor=#000000;fontColor=default;entryX=0.889;entryY=1.033;entryDx=0;entryDy=0;entryPerimeter=0;" parent="1" source="XogJSWs-fFkcAVBSwePA-72" target="sjSc6PjK9yt8h6AtYTrf-4" edge="1">
          <mxGeometry relative="1" as="geometry">
            <mxPoint x="930" y="580" as="targetPoint" />
            <Array as="points">
              <mxPoint x="950" y="640" />
              <mxPoint x="920" y="640" />
            </Array>
          </mxGeometry>
        </mxCell>
        <mxCell id="XogJSWs-fFkcAVBSwePA-69" value="Intake" style="rounded=1;whiteSpace=wrap;html=1;labelBackgroundColor=none;fillColor=#B0E3E6;strokeColor=#000000;fontColor=#393C56;" parent="1" vertex="1">
          <mxGeometry x="987.5" y="870" width="90" height="60" as="geometry" />
        </mxCell>
        <mxCell id="XogJSWs-fFkcAVBSwePA-74" style="rounded=0;orthogonalLoop=1;jettySize=auto;html=1;entryX=0.5;entryY=0;entryDx=0;entryDy=0;endArrow=none;endFill=0;exitX=0.5;exitY=1;exitDx=0;exitDy=0;labelBackgroundColor=none;strokeColor=#000000;fontColor=default;" parent="1" source="XogJSWs-fFkcAVBSwePA-72" target="XogJSWs-fFkcAVBSwePA-69" edge="1">
          <mxGeometry relative="1" as="geometry">
            <mxPoint x="980" y="805" as="sourcePoint" />
            <Array as="points">
              <mxPoint x="950" y="840" />
              <mxPoint x="1033" y="840" />
            </Array>
          </mxGeometry>
        </mxCell>
        <mxCell id="XogJSWs-fFkcAVBSwePA-72" value="Enrolled-In" style="rhombus;whiteSpace=wrap;html=1;labelBackgroundColor=none;fillColor=#FFF2CC;strokeColor=#000000;fontColor=#393C56;" parent="1" vertex="1">
          <mxGeometry x="910" y="700" width="80" height="50" as="geometry" />
        </mxCell>
        <mxCell id="XogJSWs-fFkcAVBSwePA-75" value="&lt;font style=&quot;font-size: 11px;&quot;&gt;&lt;u&gt;Intake-ID&lt;/u&gt;&lt;/font&gt;" style="ellipse;whiteSpace=wrap;html=1;labelBackgroundColor=none;fillColor=#F8CECC;strokeColor=#000000;fontColor=#393C56;" parent="1" vertex="1">
          <mxGeometry x="967.5" y="950" width="60" height="40" as="geometry" />
        </mxCell>
        <mxCell id="XogJSWs-fFkcAVBSwePA-76" style="rounded=0;orthogonalLoop=1;jettySize=auto;html=1;entryX=0.5;entryY=0;entryDx=0;entryDy=0;endArrow=none;endFill=0;exitX=0.5;exitY=1;exitDx=0;exitDy=0;labelBackgroundColor=none;strokeColor=#000000;fontColor=default;" parent="1" source="XogJSWs-fFkcAVBSwePA-69" target="XogJSWs-fFkcAVBSwePA-75" edge="1">
          <mxGeometry relative="1" as="geometry" />
        </mxCell>
        <mxCell id="XogJSWs-fFkcAVBSwePA-77" style="rounded=0;orthogonalLoop=1;jettySize=auto;html=1;entryX=0.5;entryY=0;entryDx=0;entryDy=0;endArrow=none;endFill=0;exitX=0.5;exitY=1;exitDx=0;exitDy=0;labelBackgroundColor=none;strokeColor=#000000;fontColor=default;" parent="1" source="XogJSWs-fFkcAVBSwePA-69" target="AFVBEa2lu6-2GRhfA7ZJ-19" edge="1">
          <mxGeometry relative="1" as="geometry" />
        </mxCell>
        <mxCell id="XogJSWs-fFkcAVBSwePA-79" value="M" style="text;html=1;strokeColor=none;fillColor=none;align=center;verticalAlign=middle;whiteSpace=wrap;rounded=0;fontColor=#393C56;labelBackgroundColor=none;" parent="1" vertex="1">
          <mxGeometry x="927.5" y="685" width="20" height="20" as="geometry" />
        </mxCell>
        <mxCell id="XogJSWs-fFkcAVBSwePA-83" style="rounded=0;orthogonalLoop=1;jettySize=auto;html=1;entryX=1;entryY=0.75;entryDx=0;entryDy=0;endArrow=none;endFill=0;exitX=0.302;exitY=0.038;exitDx=0;exitDy=0;exitPerimeter=0;labelBackgroundColor=none;strokeColor=#000000;fontColor=default;" parent="1" source="XogJSWs-fFkcAVBSwePA-82" target="sjSc6PjK9yt8h6AtYTrf-4" edge="1">
          <mxGeometry relative="1" as="geometry" />
        </mxCell>
        <mxCell id="XogJSWs-fFkcAVBSwePA-82" value="&lt;font style=&quot;font-size: 11px;&quot;&gt;FacebookURL&lt;/font&gt;" style="ellipse;whiteSpace=wrap;html=1;labelBackgroundColor=none;fillColor=#F8CECC;strokeColor=#000000;fontColor=#393C56;" parent="1" vertex="1">
          <mxGeometry x="1040" y="540" width="80" height="30" as="geometry" />
        </mxCell>
        <mxCell id="J839yYvX88NxZka72ETJ-12" style="rounded=0;orthogonalLoop=1;jettySize=auto;html=1;entryX=0.634;entryY=1.025;entryDx=0;entryDy=0;endArrow=none;endFill=0;labelBackgroundColor=none;strokeColor=#000000;fontColor=default;entryPerimeter=0;" parent="1" source="XogJSWs-fFkcAVBSwePA-88" target="E_pe6YxIyCe0430A1qZB-23" edge="1">
          <mxGeometry relative="1" as="geometry" />
        </mxCell>
        <mxCell id="XogJSWs-fFkcAVBSwePA-88" value="&lt;font style=&quot;font-size: 11px;&quot;&gt;Provider-Name&lt;/font&gt;" style="ellipse;whiteSpace=wrap;html=1;labelBackgroundColor=none;fillColor=#F2CC8F;strokeColor=#000000;fontColor=#393C56;" parent="1" vertex="1">
          <mxGeometry x="760" y="800" width="60" height="40" as="geometry" />
        </mxCell>
        <mxCell id="J839yYvX88NxZka72ETJ-5" style="rounded=0;orthogonalLoop=1;jettySize=auto;html=1;entryX=0.5;entryY=0;entryDx=0;entryDy=0;endArrow=none;endFill=0;exitX=0.439;exitY=1.017;exitDx=0;exitDy=0;exitPerimeter=0;labelBackgroundColor=none;strokeColor=#000000;fontColor=default;" parent="1" source="J839yYvX88NxZka72ETJ-2" target="J839yYvX88NxZka72ETJ-4" edge="1">
          <mxGeometry relative="1" as="geometry" />
        </mxCell>
        <mxCell id="J839yYvX88NxZka72ETJ-2" value="Round" style="rounded=1;whiteSpace=wrap;html=1;labelBackgroundColor=none;fillColor=#B0E3E6;strokeColor=#000000;fontColor=#393C56;" parent="1" vertex="1">
          <mxGeometry x="840" y="870" width="90" height="60" as="geometry" />
        </mxCell>
        <mxCell id="J839yYvX88NxZka72ETJ-3" value="&lt;font style=&quot;font-size: 11px;&quot;&gt;Round-No&lt;/font&gt;" style="ellipse;whiteSpace=wrap;html=1;labelBackgroundColor=none;fillColor=#F2CC8F;strokeColor=#000000;fontColor=#393C56;" parent="1" vertex="1">
          <mxGeometry x="880" y="950" width="60" height="40" as="geometry" />
        </mxCell>
        <mxCell id="J839yYvX88NxZka72ETJ-4" value="&lt;font style=&quot;font-size: 11px;&quot;&gt;&lt;u&gt;Round-ID&lt;/u&gt;&lt;/font&gt;" style="ellipse;whiteSpace=wrap;html=1;labelBackgroundColor=none;fillColor=#F2CC8F;strokeColor=#000000;fontColor=#393C56;" parent="1" vertex="1">
          <mxGeometry x="810" y="950" width="60" height="40" as="geometry" />
        </mxCell>
        <mxCell id="J839yYvX88NxZka72ETJ-6" style="rounded=0;orthogonalLoop=1;jettySize=auto;html=1;entryX=0.5;entryY=0;entryDx=0;entryDy=0;endArrow=none;endFill=0;exitX=0.439;exitY=1;exitDx=0;exitDy=0;exitPerimeter=0;labelBackgroundColor=none;strokeColor=#000000;fontColor=default;" parent="1" source="J839yYvX88NxZka72ETJ-2" target="J839yYvX88NxZka72ETJ-3" edge="1">
          <mxGeometry relative="1" as="geometry" />
        </mxCell>
        <mxCell id="J839yYvX88NxZka72ETJ-9" style="rounded=0;orthogonalLoop=1;jettySize=auto;html=1;endArrow=none;endFill=0;labelBackgroundColor=none;strokeColor=#000000;fontColor=default;entryX=0.026;entryY=0.909;entryDx=0;entryDy=0;entryPerimeter=0;" parent="1" source="E_pe6YxIyCe0430A1qZB-29" edge="1" target="E_pe6YxIyCe0430A1qZB-23">
          <mxGeometry relative="1" as="geometry">
            <mxPoint x="720" y="760" as="targetPoint" />
          </mxGeometry>
        </mxCell>
        <mxCell id="J839yYvX88NxZka72ETJ-10" style="rounded=0;orthogonalLoop=1;jettySize=auto;html=1;endArrow=none;endFill=0;labelBackgroundColor=none;strokeColor=#000000;fontColor=default;entryX=0.25;entryY=1;entryDx=0;entryDy=0;" parent="1" source="E_pe6YxIyCe0430A1qZB-30" target="E_pe6YxIyCe0430A1qZB-23" edge="1">
          <mxGeometry relative="1" as="geometry">
            <mxPoint x="740" y="770" as="targetPoint" />
          </mxGeometry>
        </mxCell>
        <mxCell id="J839yYvX88NxZka72ETJ-11" style="rounded=0;orthogonalLoop=1;jettySize=auto;html=1;entryX=0.5;entryY=1;entryDx=0;entryDy=0;endArrow=none;endFill=0;labelBackgroundColor=none;strokeColor=#000000;fontColor=default;" parent="1" source="E_pe6YxIyCe0430A1qZB-31" target="E_pe6YxIyCe0430A1qZB-23" edge="1">
          <mxGeometry relative="1" as="geometry" />
        </mxCell>
        <mxCell id="J839yYvX88NxZka72ETJ-14" style="rounded=0;orthogonalLoop=1;jettySize=auto;html=1;endArrow=none;endFill=0;exitX=0.5;exitY=0;exitDx=0;exitDy=0;entryX=0.667;entryY=1;entryDx=0;entryDy=0;entryPerimeter=0;labelBackgroundColor=none;strokeColor=#000000;fontColor=default;" parent="1" source="J839yYvX88NxZka72ETJ-15" target="sjSc6PjK9yt8h6AtYTrf-4" edge="1">
          <mxGeometry relative="1" as="geometry">
            <mxPoint x="878" y="580" as="targetPoint" />
          </mxGeometry>
        </mxCell>
        <mxCell id="J839yYvX88NxZka72ETJ-16" value="" style="rounded=0;orthogonalLoop=1;jettySize=auto;html=1;entryX=0.5;entryY=1;entryDx=0;entryDy=0;endArrow=none;endFill=0;labelBackgroundColor=none;strokeColor=#000000;fontColor=default;exitX=0.667;exitY=0;exitDx=0;exitDy=0;exitPerimeter=0;" parent="1" source="J839yYvX88NxZka72ETJ-2" target="J839yYvX88NxZka72ETJ-15" edge="1">
          <mxGeometry relative="1" as="geometry">
            <mxPoint x="638" y="870" as="sourcePoint" />
            <mxPoint x="863" y="560" as="targetPoint" />
          </mxGeometry>
        </mxCell>
        <mxCell id="J839yYvX88NxZka72ETJ-15" value="Enrolled-In" style="rhombus;whiteSpace=wrap;html=1;labelBackgroundColor=none;fillColor=#FFF2CC;strokeColor=#000000;fontColor=#393C56;" parent="1" vertex="1">
          <mxGeometry x="860" y="765" width="80" height="50" as="geometry" />
        </mxCell>
        <mxCell id="J839yYvX88NxZka72ETJ-17" value="1" style="text;html=1;strokeColor=none;fillColor=none;align=center;verticalAlign=middle;whiteSpace=wrap;rounded=0;fontColor=#393C56;labelBackgroundColor=none;" parent="1" vertex="1">
          <mxGeometry x="880" y="820" width="20" height="20" as="geometry" />
        </mxCell>
        <mxCell id="J839yYvX88NxZka72ETJ-18" value="M" style="text;html=1;strokeColor=none;fillColor=none;align=center;verticalAlign=middle;whiteSpace=wrap;rounded=0;fontColor=#393C56;labelBackgroundColor=none;" parent="1" vertex="1">
          <mxGeometry x="880" y="750" width="20" height="20" as="geometry" />
        </mxCell>
        <mxCell id="hCMCqNlIO358hZ1XGXYL-14" style="rounded=0;orthogonalLoop=1;jettySize=auto;html=1;endArrow=none;endFill=0;labelBackgroundColor=none;fontColor=default;strokeColor=#000000;entryX=0.933;entryY=1;entryDx=0;entryDy=0;entryPerimeter=0;" parent="1" source="hCMCqNlIO358hZ1XGXYL-15" target="hCMCqNlIO358hZ1XGXYL-25" edge="1">
          <mxGeometry relative="1" as="geometry">
            <mxPoint x="-20" y="930" as="targetPoint" />
          </mxGeometry>
        </mxCell>
        <mxCell id="hCMCqNlIO358hZ1XGXYL-15" value="&lt;font style=&quot;font-size: 11px;&quot;&gt;Salary&lt;/font&gt;" style="ellipse;whiteSpace=wrap;html=1;labelBackgroundColor=none;fillColor=#F2CC8F;strokeColor=#000000;fontColor=#393C56;" parent="1" vertex="1">
          <mxGeometry x="110" y="950" width="50" height="40" as="geometry" />
        </mxCell>
        <mxCell id="hCMCqNlIO358hZ1XGXYL-16" value="&lt;span style=&quot;font-size: 11px;&quot;&gt;Hired-&lt;br&gt;Date&lt;br&gt;&lt;/span&gt;" style="ellipse;whiteSpace=wrap;html=1;labelBackgroundColor=none;fillColor=#F2CC8F;strokeColor=#000000;fontColor=#393C56;" parent="1" vertex="1">
          <mxGeometry x="-50" y="990" width="60" height="40" as="geometry" />
        </mxCell>
        <mxCell id="hCMCqNlIO358hZ1XGXYL-17" style="rounded=0;orthogonalLoop=1;jettySize=auto;html=1;endArrow=none;endFill=0;labelBackgroundColor=none;fontColor=default;strokeColor=#000000;entryX=0.75;entryY=1;entryDx=0;entryDy=0;" parent="1" source="hCMCqNlIO358hZ1XGXYL-18" target="hCMCqNlIO358hZ1XGXYL-25" edge="1">
          <mxGeometry relative="1" as="geometry">
            <mxPoint x="50" y="940" as="targetPoint" />
            <mxPoint x="110" y="940" as="sourcePoint" />
          </mxGeometry>
        </mxCell>
        <mxCell id="hCMCqNlIO358hZ1XGXYL-18" value="&lt;font style=&quot;font-size: 11px;&quot;&gt;Job-Type&lt;/font&gt;" style="ellipse;whiteSpace=wrap;html=1;labelBackgroundColor=none;fillColor=#F2CC8F;strokeColor=#000000;fontColor=#393C56;" parent="1" vertex="1">
          <mxGeometry x="70" y="990" width="60" height="40" as="geometry" />
        </mxCell>
        <mxCell id="hCMCqNlIO358hZ1XGXYL-19" style="rounded=0;orthogonalLoop=1;jettySize=auto;html=1;endArrow=none;endFill=0;labelBackgroundColor=none;fontColor=default;strokeColor=#000000;exitX=1;exitY=0.5;exitDx=0;exitDy=0;entryX=0;entryY=0.75;entryDx=0;entryDy=0;" parent="1" source="hCMCqNlIO358hZ1XGXYL-28" target="hCMCqNlIO358hZ1XGXYL-25" edge="1">
          <mxGeometry relative="1" as="geometry">
            <mxPoint x="-30" y="880" as="targetPoint" />
            <mxPoint x="152" y="868" as="sourcePoint" />
          </mxGeometry>
        </mxCell>
        <mxCell id="hCMCqNlIO358hZ1XGXYL-20" style="rounded=0;orthogonalLoop=1;jettySize=auto;html=1;endArrow=none;endFill=0;labelBackgroundColor=none;fontColor=default;strokeColor=#000000;entryX=0.5;entryY=1;entryDx=0;entryDy=0;" parent="1" source="hCMCqNlIO358hZ1XGXYL-16" target="hCMCqNlIO358hZ1XGXYL-25" edge="1">
          <mxGeometry relative="1" as="geometry">
            <mxPoint x="135" y="935" as="targetPoint" />
          </mxGeometry>
        </mxCell>
        <mxCell id="hCMCqNlIO358hZ1XGXYL-21" style="rounded=0;orthogonalLoop=1;jettySize=auto;html=1;endArrow=none;endFill=0;strokeColor=#000000;labelBackgroundColor=none;fontColor=default;entryX=0.644;entryY=1;entryDx=0;entryDy=0;entryPerimeter=0;" parent="1" source="hCMCqNlIO358hZ1XGXYL-22" target="hCMCqNlIO358hZ1XGXYL-25" edge="1">
          <mxGeometry relative="1" as="geometry">
            <mxPoint x="60" y="950" as="targetPoint" />
          </mxGeometry>
        </mxCell>
        <mxCell id="hCMCqNlIO358hZ1XGXYL-22" value="&lt;font style=&quot;font-size: 11px;&quot;&gt;Job-Title&lt;/font&gt;" style="ellipse;whiteSpace=wrap;html=1;labelBackgroundColor=none;fillColor=#F2CC8F;strokeColor=#000000;fontColor=#393C56;" parent="1" vertex="1">
          <mxGeometry x="10" y="1010" width="60" height="40" as="geometry" />
        </mxCell>
        <mxCell id="hCMCqNlIO358hZ1XGXYL-23" style="rounded=0;orthogonalLoop=1;jettySize=auto;html=1;entryX=0.444;entryY=0.917;entryDx=0;entryDy=0;strokeColor=#000000;endArrow=none;endFill=0;exitX=0.771;exitY=0.133;exitDx=0;exitDy=0;entryPerimeter=0;exitPerimeter=0;labelBackgroundColor=none;fontColor=default;" parent="1" source="hCMCqNlIO358hZ1XGXYL-29" target="hCMCqNlIO358hZ1XGXYL-25" edge="1">
          <mxGeometry relative="1" as="geometry">
            <mxPoint x="210" y="866" as="sourcePoint" />
            <mxPoint x="135" y="905" as="targetPoint" />
          </mxGeometry>
        </mxCell>
        <mxCell id="hCMCqNlIO358hZ1XGXYL-49" style="rounded=0;orthogonalLoop=1;jettySize=auto;html=1;entryX=0.25;entryY=1;entryDx=0;entryDy=0;endArrow=none;endFill=0;labelBackgroundColor=none;strokeColor=#000000;fontColor=default;" parent="1" source="hCMCqNlIO358hZ1XGXYL-52" target="sjSc6PjK9yt8h6AtYTrf-5" edge="1">
          <mxGeometry relative="1" as="geometry">
            <mxPoint x="-10" y="560" as="targetPoint" />
            <Array as="points">
              <mxPoint x="-60" y="440" />
              <mxPoint x="-60" y="200" />
              <mxPoint x="120" y="200" />
              <mxPoint x="173" y="140" />
            </Array>
          </mxGeometry>
        </mxCell>
        <mxCell id="hCMCqNlIO358hZ1XGXYL-25" value="Graduates" style="rounded=1;whiteSpace=wrap;html=1;labelBackgroundColor=none;fillColor=#B0E3E6;strokeColor=#000000;fontColor=#393C56;" parent="1" vertex="1">
          <mxGeometry x="-5" y="860" width="90" height="60" as="geometry" />
        </mxCell>
        <mxCell id="hCMCqNlIO358hZ1XGXYL-28" value="&lt;font size=&quot;1&quot; style=&quot;&quot;&gt;&lt;u style=&quot;font-size: 11px;&quot;&gt;Grad-ID&lt;/u&gt;&lt;/font&gt;" style="ellipse;whiteSpace=wrap;html=1;labelBackgroundColor=none;fillColor=#F2CC8F;strokeColor=#000000;fontColor=#393C56;" parent="1" vertex="1">
          <mxGeometry x="-90" y="890" width="60" height="40" as="geometry" />
        </mxCell>
        <mxCell id="hCMCqNlIO358hZ1XGXYL-29" value="&lt;font style=&quot;font-size: 11px;&quot;&gt;Grad-Certfication&lt;/font&gt;" style="ellipse;whiteSpace=wrap;html=1;labelBackgroundColor=none;fillColor=#F2CC8F;strokeColor=#000000;fontColor=#393C56;" parent="1" vertex="1">
          <mxGeometry x="-90" y="940" width="70" height="45" as="geometry" />
        </mxCell>
        <mxCell id="hCMCqNlIO358hZ1XGXYL-30" value="&lt;font style=&quot;font-size: 11px;&quot;&gt;C-Name&lt;/font&gt;" style="ellipse;whiteSpace=wrap;html=1;labelBackgroundColor=none;fillColor=#F2CC8F;strokeColor=#000000;fontColor=#393C56;" parent="1" vertex="1">
          <mxGeometry x="470" y="960" width="60" height="40" as="geometry" />
        </mxCell>
        <mxCell id="hCMCqNlIO358hZ1XGXYL-31" value="&lt;font style=&quot;font-size: 11px;&quot;&gt;C-Location&lt;/font&gt;" style="ellipse;whiteSpace=wrap;html=1;labelBackgroundColor=none;fillColor=#F2CC8F;strokeColor=#000000;fontColor=#393C56;" parent="1" vertex="1">
          <mxGeometry x="410" y="940" width="60" height="40" as="geometry" />
        </mxCell>
        <mxCell id="hCMCqNlIO358hZ1XGXYL-32" style="rounded=0;orthogonalLoop=1;jettySize=auto;html=1;entryX=1;entryY=0.5;entryDx=0;entryDy=0;endArrow=none;endFill=0;shape=link;labelBackgroundColor=none;strokeColor=#000000;fontColor=default;" parent="1" source="hCMCqNlIO358hZ1XGXYL-36" target="hCMCqNlIO358hZ1XGXYL-37" edge="1">
          <mxGeometry relative="1" as="geometry" />
        </mxCell>
        <mxCell id="hCMCqNlIO358hZ1XGXYL-33" style="rounded=0;orthogonalLoop=1;jettySize=auto;html=1;entryX=0.317;entryY=0.05;entryDx=0;entryDy=0;endArrow=none;endFill=0;entryPerimeter=0;exitX=0.615;exitY=1.008;exitDx=0;exitDy=0;labelBackgroundColor=none;strokeColor=#000000;fontColor=default;exitPerimeter=0;" parent="1" source="hCMCqNlIO358hZ1XGXYL-36" target="hCMCqNlIO358hZ1XGXYL-38" edge="1">
          <mxGeometry relative="1" as="geometry" />
        </mxCell>
        <mxCell id="hCMCqNlIO358hZ1XGXYL-34" style="rounded=0;orthogonalLoop=1;jettySize=auto;html=1;endArrow=none;endFill=0;labelBackgroundColor=none;strokeColor=#000000;fontColor=default;" parent="1" source="hCMCqNlIO358hZ1XGXYL-36" target="hCMCqNlIO358hZ1XGXYL-30" edge="1">
          <mxGeometry relative="1" as="geometry" />
        </mxCell>
        <mxCell id="hCMCqNlIO358hZ1XGXYL-35" style="rounded=0;orthogonalLoop=1;jettySize=auto;html=1;entryX=0.5;entryY=0;entryDx=0;entryDy=0;endArrow=none;endFill=0;exitX=0.448;exitY=0.981;exitDx=0;exitDy=0;exitPerimeter=0;labelBackgroundColor=none;strokeColor=#000000;fontColor=default;entryPerimeter=0;" parent="1" source="hCMCqNlIO358hZ1XGXYL-36" target="hCMCqNlIO358hZ1XGXYL-31" edge="1">
          <mxGeometry relative="1" as="geometry" />
        </mxCell>
        <mxCell id="hCMCqNlIO358hZ1XGXYL-36" value="Company" style="rounded=1;whiteSpace=wrap;html=1;labelBackgroundColor=none;fillColor=#B0E3E6;strokeColor=#000000;fontColor=#393C56;" parent="1" vertex="1">
          <mxGeometry x="450" y="845" width="90" height="60" as="geometry" />
        </mxCell>
        <mxCell id="hCMCqNlIO358hZ1XGXYL-47" style="rounded=0;orthogonalLoop=1;jettySize=auto;html=1;endArrow=none;endFill=0;entryX=1;entryY=0.25;entryDx=0;entryDy=0;labelBackgroundColor=none;strokeColor=#000000;fontColor=default;" parent="1" source="hCMCqNlIO358hZ1XGXYL-37" target="hCMCqNlIO358hZ1XGXYL-25" edge="1">
          <mxGeometry relative="1" as="geometry" />
        </mxCell>
        <mxCell id="hCMCqNlIO358hZ1XGXYL-37" value="Works-at" style="rhombus;whiteSpace=wrap;html=1;labelBackgroundColor=none;fillColor=#FFF2CC;strokeColor=#000000;fontColor=#393C56;" parent="1" vertex="1">
          <mxGeometry x="265" y="850" width="80" height="50" as="geometry" />
        </mxCell>
        <mxCell id="hCMCqNlIO358hZ1XGXYL-38" value="&lt;font style=&quot;font-size: 11px;&quot;&gt;&lt;u&gt;C-ID&lt;/u&gt;&lt;/font&gt;" style="ellipse;whiteSpace=wrap;html=1;labelBackgroundColor=none;fillColor=#F2CC8F;strokeColor=#000000;fontColor=#393C56;" parent="1" vertex="1">
          <mxGeometry x="530" y="940" width="60" height="40" as="geometry" />
        </mxCell>
        <mxCell id="hCMCqNlIO358hZ1XGXYL-43" value="1" style="text;html=1;strokeColor=none;fillColor=none;align=center;verticalAlign=middle;whiteSpace=wrap;rounded=0;fontColor=#393C56;labelBackgroundColor=none;" parent="1" vertex="1">
          <mxGeometry x="932.5" y="750" width="20" height="20" as="geometry" />
        </mxCell>
        <mxCell id="hCMCqNlIO358hZ1XGXYL-50" value="M" style="text;html=1;strokeColor=none;fillColor=none;align=center;verticalAlign=middle;whiteSpace=wrap;rounded=0;fontColor=#393C56;labelBackgroundColor=none;" parent="1" vertex="1">
          <mxGeometry x="245" y="850" width="20" height="20" as="geometry" />
        </mxCell>
        <mxCell id="hCMCqNlIO358hZ1XGXYL-51" value="1" style="text;html=1;strokeColor=none;fillColor=none;align=center;verticalAlign=middle;whiteSpace=wrap;rounded=0;fontColor=#393C56;labelBackgroundColor=none;" parent="1" vertex="1">
          <mxGeometry x="345" y="850" width="20" height="20" as="geometry" />
        </mxCell>
        <mxCell id="hCMCqNlIO358hZ1XGXYL-53" value="" style="rounded=0;orthogonalLoop=1;jettySize=auto;html=1;entryX=0.5;entryY=1;entryDx=0;entryDy=0;endArrow=none;endFill=0;shape=link;labelBackgroundColor=none;strokeColor=#000000;fontColor=default;" parent="1" source="hCMCqNlIO358hZ1XGXYL-25" target="hCMCqNlIO358hZ1XGXYL-52" edge="1">
          <mxGeometry relative="1" as="geometry">
            <mxPoint x="173" y="95" as="targetPoint" />
            <mxPoint x="33" y="835" as="sourcePoint" />
            <Array as="points">
              <mxPoint x="40" y="840" />
              <mxPoint x="-60" y="840" />
            </Array>
          </mxGeometry>
        </mxCell>
        <mxCell id="hCMCqNlIO358hZ1XGXYL-52" value="&lt;font style=&quot;font-size: 11px;&quot;&gt;Graduated&lt;br&gt;-From&lt;/font&gt;" style="rhombus;whiteSpace=wrap;html=1;labelBackgroundColor=none;fillColor=#FFF2CC;strokeColor=#000000;fontColor=#393C56;" parent="1" vertex="1">
          <mxGeometry x="-100" y="680" width="80" height="60" as="geometry" />
        </mxCell>
        <mxCell id="hCMCqNlIO358hZ1XGXYL-54" value="M" style="text;html=1;strokeColor=none;fillColor=none;align=center;verticalAlign=middle;whiteSpace=wrap;rounded=0;fontColor=#393C56;labelBackgroundColor=none;" parent="1" vertex="1">
          <mxGeometry x="-50" y="740" width="20" height="20" as="geometry" />
        </mxCell>
        <mxCell id="hCMCqNlIO358hZ1XGXYL-55" value="1" style="text;html=1;strokeColor=none;fillColor=none;align=center;verticalAlign=middle;whiteSpace=wrap;rounded=0;fontColor=#393C56;labelBackgroundColor=none;" parent="1" vertex="1">
          <mxGeometry x="-60" y="660" width="20" height="20" as="geometry" />
        </mxCell>
        <mxCell id="prERIdvWEl2vXoOlrRKa-1" value="&lt;font style=&quot;font-size: 11px;&quot;&gt;Course-Evaluation&lt;/font&gt;" style="ellipse;whiteSpace=wrap;html=1;labelBackgroundColor=none;fillColor=#F8CECC;strokeColor=#000000;fontColor=#393C56;" parent="1" vertex="1">
          <mxGeometry x="95" y="382.5" width="60" height="40" as="geometry" />
        </mxCell>
        <mxCell id="prERIdvWEl2vXoOlrRKa-6" style="rounded=0;orthogonalLoop=1;jettySize=auto;html=1;entryX=0.189;entryY=1;entryDx=0;entryDy=0;entryPerimeter=0;endArrow=none;endFill=0;labelBackgroundColor=none;strokeColor=#000000;fontColor=default;" parent="1" source="prERIdvWEl2vXoOlrRKa-1" target="sjSc6PjK9yt8h6AtYTrf-7" edge="1">
          <mxGeometry relative="1" as="geometry" />
        </mxCell>
        <mxCell id="tZaLSTwGqF6uJlZDeu8a-1" style="rounded=0;orthogonalLoop=1;jettySize=auto;html=1;entryX=0.25;entryY=1;entryDx=0;entryDy=0;endArrow=none;endFill=0;exitX=0.5;exitY=0;exitDx=0;exitDy=0;shape=link;labelBackgroundColor=none;strokeColor=#000000;fontColor=default;" parent="1" source="tZaLSTwGqF6uJlZDeu8a-2" target="sjSc6PjK9yt8h6AtYTrf-6" edge="1">
          <mxGeometry relative="1" as="geometry">
            <mxPoint x="310" y="630" as="sourcePoint" />
            <Array as="points">
              <mxPoint x="380" y="550" />
              <mxPoint x="418" y="550" />
            </Array>
          </mxGeometry>
        </mxCell>
        <mxCell id="tZaLSTwGqF6uJlZDeu8a-3" value="" style="rounded=0;orthogonalLoop=1;jettySize=auto;html=1;entryX=0.5;entryY=1;entryDx=0;entryDy=0;endArrow=none;endFill=0;exitX=1;exitY=0.15;exitDx=0;exitDy=0;exitPerimeter=0;shape=link;labelBackgroundColor=none;strokeColor=#000000;fontColor=default;" parent="1" source="sjSc6PjK9yt8h6AtYTrf-8" target="tZaLSTwGqF6uJlZDeu8a-2" edge="1">
          <mxGeometry relative="1" as="geometry">
            <mxPoint x="262" y="657" as="sourcePoint" />
            <mxPoint x="402" y="523" as="targetPoint" />
            <Array as="points">
              <mxPoint x="380" y="664" />
            </Array>
          </mxGeometry>
        </mxCell>
        <mxCell id="tZaLSTwGqF6uJlZDeu8a-2" value="Generate" style="rhombus;whiteSpace=wrap;html=1;labelBackgroundColor=none;fillColor=#FFF2CC;strokeColor=#000000;fontColor=#393C56;" parent="1" vertex="1">
          <mxGeometry x="340" y="590" width="80" height="50" as="geometry" />
        </mxCell>
        <mxCell id="tZaLSTwGqF6uJlZDeu8a-4" value="M" style="text;html=1;strokeColor=none;fillColor=none;align=center;verticalAlign=middle;whiteSpace=wrap;rounded=0;fontColor=#393C56;labelBackgroundColor=none;" parent="1" vertex="1">
          <mxGeometry x="360" y="570" width="20" height="20" as="geometry" />
        </mxCell>
        <mxCell id="tZaLSTwGqF6uJlZDeu8a-5" value="M" style="text;html=1;strokeColor=none;fillColor=none;align=center;verticalAlign=middle;whiteSpace=wrap;rounded=0;fontColor=#393C56;labelBackgroundColor=none;" parent="1" vertex="1">
          <mxGeometry x="360" y="640" width="20" height="20" as="geometry" />
        </mxCell>
        <mxCell id="A4VxWE5l_d1fXwFR-Y5C-6" value="" style="rounded=0;orthogonalLoop=1;jettySize=auto;html=1;entryX=0.5;entryY=0;entryDx=0;entryDy=0;strokeColor=#000000;fontColor=default;fillColor=#F2CC8F;endArrow=none;endFill=0;labelBackgroundColor=none;" parent="1" target="A4VxWE5l_d1fXwFR-Y5C-5" edge="1">
          <mxGeometry relative="1" as="geometry">
            <mxPoint x="180" y="370" as="sourcePoint" />
            <mxPoint x="225" y="655" as="targetPoint" />
            <Array as="points">
              <mxPoint x="180" y="410" />
              <mxPoint x="120" y="480" />
              <mxPoint y="480" />
            </Array>
          </mxGeometry>
        </mxCell>
        <mxCell id="A4VxWE5l_d1fXwFR-Y5C-5" value="&lt;span style=&quot;font-size: 11px;&quot;&gt;Has&lt;/span&gt;" style="rhombus;whiteSpace=wrap;html=1;labelBackgroundColor=none;fillColor=#FFF2CC;strokeColor=#000000;fontColor=#393C56;" parent="1" vertex="1">
          <mxGeometry x="-40" y="530" width="80" height="60" as="geometry" />
        </mxCell>
        <mxCell id="A4VxWE5l_d1fXwFR-Y5C-7" value="1" style="text;html=1;strokeColor=none;fillColor=none;align=center;verticalAlign=middle;whiteSpace=wrap;rounded=0;fontColor=#393C56;labelBackgroundColor=none;" parent="1" vertex="1">
          <mxGeometry y="510" width="20" height="20" as="geometry" />
        </mxCell>
        <mxCell id="A4VxWE5l_d1fXwFR-Y5C-8" value="M" style="text;html=1;strokeColor=none;fillColor=none;align=center;verticalAlign=middle;whiteSpace=wrap;rounded=0;fontColor=#393C56;labelBackgroundColor=none;" parent="1" vertex="1">
          <mxGeometry y="590" width="20" height="20" as="geometry" />
        </mxCell>
        <mxCell id="epSMDaVDMew4XiGEGOUg-1" style="rounded=0;orthogonalLoop=1;jettySize=auto;html=1;entryX=0.844;entryY=0;entryDx=0;entryDy=0;entryPerimeter=0;exitX=0.5;exitY=1;exitDx=0;exitDy=0;shape=link;labelBackgroundColor=none;strokeColor=#000000;fontColor=default;" parent="1" source="epSMDaVDMew4XiGEGOUg-2" target="sjSc6PjK9yt8h6AtYTrf-8" edge="1">
          <mxGeometry relative="1" as="geometry">
            <Array as="points">
              <mxPoint x="290" y="630" />
              <mxPoint x="256" y="640" />
            </Array>
          </mxGeometry>
        </mxCell>
        <mxCell id="epSMDaVDMew4XiGEGOUg-3" value="" style="rounded=0;orthogonalLoop=1;jettySize=auto;html=1;entryX=0.5;entryY=0;entryDx=0;entryDy=0;exitX=0;exitY=0.867;exitDx=0;exitDy=0;exitPerimeter=0;endArrow=none;endFill=0;labelBackgroundColor=none;strokeColor=#000000;fontColor=default;" parent="1" source="sjSc6PjK9yt8h6AtYTrf-6" target="epSMDaVDMew4XiGEGOUg-2" edge="1">
          <mxGeometry relative="1" as="geometry">
            <mxPoint x="397" y="518" as="sourcePoint" />
            <mxPoint x="256" y="655" as="targetPoint" />
            <Array as="points">
              <mxPoint x="380" y="517" />
              <mxPoint x="360" y="530" />
              <mxPoint x="330" y="530" />
              <mxPoint x="290" y="530" />
            </Array>
          </mxGeometry>
        </mxCell>
        <mxCell id="epSMDaVDMew4XiGEGOUg-2" value="Have" style="rhombus;whiteSpace=wrap;html=1;labelBackgroundColor=none;fillColor=#FFF2CC;strokeColor=#000000;fontColor=#393C56;" parent="1" vertex="1">
          <mxGeometry x="250" y="550" width="80" height="50" as="geometry" />
        </mxCell>
        <mxCell id="epSMDaVDMew4XiGEGOUg-4" value="M" style="text;html=1;strokeColor=none;fillColor=none;align=center;verticalAlign=middle;whiteSpace=wrap;rounded=0;fontColor=#393C56;labelBackgroundColor=none;" parent="1" vertex="1">
          <mxGeometry x="290" y="600" width="20" height="20" as="geometry" />
        </mxCell>
        <mxCell id="epSMDaVDMew4XiGEGOUg-5" value="1" style="text;html=1;strokeColor=none;fillColor=none;align=center;verticalAlign=middle;whiteSpace=wrap;rounded=0;fontColor=#393C56;labelBackgroundColor=none;" parent="1" vertex="1">
          <mxGeometry x="290" y="530" width="20" height="20" as="geometry" />
        </mxCell>
        <mxCell id="M1tWOv5ybadmFB81L19h-1" style="edgeStyle=orthogonalEdgeStyle;rounded=0;orthogonalLoop=1;jettySize=auto;html=1;shape=link;strokeColor=#000000;labelBackgroundColor=none;fontColor=default;" parent="1" source="E_pe6YxIyCe0430A1qZB-37" edge="1">
          <mxGeometry relative="1" as="geometry">
            <mxPoint x="876" y="560" as="targetPoint" />
          </mxGeometry>
        </mxCell>
        <mxCell id="M1tWOv5ybadmFB81L19h-6" value="" style="rounded=0;orthogonalLoop=1;jettySize=auto;html=1;entryX=1;entryY=0.5;entryDx=0;entryDy=0;endArrow=none;endFill=0;strokeColor=#000000;exitX=0;exitY=0.75;exitDx=0;exitDy=0;labelBackgroundColor=none;fontColor=default;" parent="1" source="sjSc6PjK9yt8h6AtYTrf-4" target="M1tWOv5ybadmFB81L19h-5" edge="1">
          <mxGeometry relative="1" as="geometry">
            <mxPoint x="840" y="542" as="sourcePoint" />
            <mxPoint x="485" y="495" as="targetPoint" />
            <Array as="points">
              <mxPoint x="750" y="545" />
              <mxPoint x="710" y="595" />
            </Array>
          </mxGeometry>
        </mxCell>
        <mxCell id="M1tWOv5ybadmFB81L19h-5" value="Takes" style="rhombus;whiteSpace=wrap;html=1;labelBackgroundColor=none;fillColor=#FFF2CC;strokeColor=#000000;fontColor=#393C56;" parent="1" vertex="1">
          <mxGeometry x="570" y="570" width="80" height="50" as="geometry" />
        </mxCell>
        <mxCell id="M1tWOv5ybadmFB81L19h-8" value="M" style="text;html=1;strokeColor=none;fillColor=none;align=center;verticalAlign=middle;whiteSpace=wrap;rounded=0;fontColor=#393C56;labelBackgroundColor=none;" parent="1" vertex="1">
          <mxGeometry x="650" y="570" width="20" height="20" as="geometry" />
        </mxCell>
        <mxCell id="M1tWOv5ybadmFB81L19h-9" value="M" style="text;html=1;strokeColor=none;fillColor=none;align=center;verticalAlign=middle;whiteSpace=wrap;rounded=0;fontColor=#393C56;labelBackgroundColor=none;" parent="1" vertex="1">
          <mxGeometry x="550" y="570" width="20" height="20" as="geometry" />
        </mxCell>
        <mxCell id="M1tWOv5ybadmFB81L19h-11" style="rounded=0;orthogonalLoop=1;jettySize=auto;html=1;entryX=0.5;entryY=1;entryDx=0;entryDy=0;endArrow=none;endFill=0;strokeColor=#000000;labelBackgroundColor=none;fontColor=default;" parent="1" source="M1tWOv5ybadmFB81L19h-10" target="M1tWOv5ybadmFB81L19h-5" edge="1">
          <mxGeometry relative="1" as="geometry" />
        </mxCell>
        <mxCell id="M1tWOv5ybadmFB81L19h-10" value="&lt;font style=&quot;font-size: 11px;&quot;&gt;Exam_&lt;br&gt;Percentage&lt;/font&gt;" style="ellipse;whiteSpace=wrap;html=1;dashed=1;labelBackgroundColor=none;fillColor=#F8CECC;strokeColor=#000000;fontColor=#393C56;" parent="1" vertex="1">
          <mxGeometry x="580" y="630" width="60" height="40" as="geometry" />
        </mxCell>
        <mxCell id="sxfvYaobRxf6MRaeUX0o-1" value="" style="shape=image;verticalLabelPosition=bottom;labelBackgroundColor=none;verticalAlign=top;aspect=fixed;imageAspect=0;image=data:image/jpeg,/9j/4AAQSkZJRgABAQEAYABgAAD/2wBDAAMCAgICAgMCAgIDAwMDBAYEBAQEBAgGBgUGCQgKCgkICQkKDA8MCgsOCwkJDRENDg8QEBEQCgwSExIQEw8QEBD/2wBDAQMDAwQDBAgEBAgQCwkLEBAQEBAQEBAQEBAQEBAQEBAQEBAQEBAQEBAQEBAQEBAQEBAQEBAQEBAQEBAQEBAQEBD/wAARCACFASwDASIAAhEBAxEB/8QAHwAAAQUBAQEBAQEAAAAAAAAAAAECAwQFBgcICQoL/8QAtRAAAgEDAwIEAwUFBAQAAAF9AQIDAAQRBRIhMUEGE1FhByJxFDKBkaEII0KxwRVS0fAkM2JyggkKFhcYGRolJicoKSo0NTY3ODk6Q0RFRkdISUpTVFVWV1hZWmNkZWZnaGlqc3R1dnd4eXqDhIWGh4iJipKTlJWWl5iZmqKjpKWmp6ipqrKztLW2t7i5usLDxMXGx8jJytLT1NXW19jZ2uHi4+Tl5ufo6erx8vP09fb3+Pn6/8QAHwEAAwEBAQEBAQEBAQAAAAAAAAECAwQFBgcICQoL/8QAtREAAgECBAQDBAcFBAQAAQJ3AAECAxEEBSExBhJBUQdhcRMiMoEIFEKRobHBCSMzUvAVYnLRChYkNOEl8RcYGRomJygpKjU2Nzg5OkNERUZHSElKU1RVVldYWVpjZGVmZ2hpanN0dXZ3eHl6goOEhYaHiImKkpOUlZaXmJmaoqOkpaanqKmqsrO0tba3uLm6wsPExcbHyMnK0tPU1dbX2Nna4uPk5ebn6Onq8vP09fb3+Pn6/9oADAMBAAIRAxEAPwD9U6KKKACiiigAooooAKKKKAIrm6t7O3lvLy4jgghUySSSMFVFHJJJ4AHrXkD/ALX37Osetf2E3xKsvO3bPOEMpt8/9dQuzHvnHvXm/wDwUQ8Wa5oXwq0fQ9Knlgtdd1Mw3zxnG+OOMsIyfRmwcd9lfnLXjY7M5Yap7OmvvP1HhDgLD59gPr2LqSSk2oqNuml3dPr0/E/b+yvrPUrOHUNPuorm2uEEkM0Lh0kU8hlI4INT18if8E5fFuuax8P/ABF4Y1KaWax0O+iNizkkRrMrF4x7Arux/tmvruvTw9b6xSjU7nwmeZXLJcwq4GUubke/dNXX4MKKKK2PJCiiigAooooAKKKKACiiigAooooAKKKKACiiigAooooAKKKKACiiigAooooAKKKKACiiigAooooAKKKKACiiigDg/jT8IPDvxt8DXPgvxA7wbmE9pdxqC9rOudrgHqOSCO4J+tfEUn/BOf4wDWfscfiXw02nbv8Aj8M0obb6+Xszn2z+Nb37f3jnxr4Y+K2i2fhvxdrOlW8mhxyPFZX0sKM/nSjcQjAE4A59q8++D/7bnxZ+Huo29t4s1SfxXoWQs1vetuuI07tHMfmz7NkH2614OLrYSpiOSvF3Wlz9l4ayriTAZPHFZTWjKNRc3JJbP+63pfTrZH3z8Dfgv4f+BngeHwfocz3UryG5vryRdrXM5ABbH8IAAAHYDuea9DrB8C+N/DvxG8K6f4y8K3wutN1GPzI26Mp6MjDsynII9RW9Xt04xjBKnt0PyXHVcTXxNSpjG3UbfNfe/W/+XQKKKKs5AooooAKKKKACiiigAooooAKKKKACiiigAooooAKKKKACiiigAooooAKKKKACiiigAooooAKKKKACiiigAooooA/On/go5/yV/Qv+xfj/APR81fJ9fWH/AAUc/wCSv6F/2L8f/o+avk+vjsw/3mfqf1HwX/yIcL/h/Vn2j/wT7+Lmi+F7LxV4P8YeKtO0rTg8F/Y/b7pIV8xtyShS5AOQqHA9K+wf+F1fB/8A6Kh4V/8ABvB/8VX420V0YfNZ4emqfLex4Wd+HeFzrHVMc6zg52ukla6SX42ufsl/wur4P/8ARUPCv/g3g/8AiqP+F1fB/wD6Kh4V/wDBvB/8VX420Vv/AG3U/kR5X/EJsJ/0Ey/8BR+yX/C6vg//ANFQ8K/+DeD/AOKo/wCF1fB//oqHhX/wbwf/ABVfjbS0f23U/kQf8Qmwn/QTL/wFH7I/8Lq+D/8A0VDwr/4N4P8A4qtLQfiL4B8U3x03wz400TVbsIZDBZ38U0gQYy21WJwMjn3ryP4G/sofCXwf4A0seIPB+l69rN/aR3F/d6hAs/7x1DFIwwIVRnAwOcZNQeGfgD4T+FH7SWm+LPA9omn6b4g0TUIZtPQnZDPG8LboweisG+70BHHXFetGpiLRlKKs7X8rn5pWwOSudajh6s3KCk4txjaTjr0d1ezt+h9C0UUV2HzIUUUUAFFFFABRRRQAUUUUAFFFFABRRRQAUUUUAFFFFABRRRQAUUUUAFFFFABRRRQAUUUUAfnT/wAFHP8Akr+hf9i/H/6Pmr5Pr6w/4KOf8lf0L/sX4/8A0fNXyfXx2Yf7zP1P6j4L/wCRDhf8P6s6rwL8LfiB8TJLyHwH4VvNaewVGuVt9v7oPkKTkjrtP5V13/DKf7RH/RKNa/KP/wCKr3//AIJo/wDIX8ef9e1h/wChTV93134PLKeJoqpJu7PjuKPEDHZFmlTA0aUJRjy6vmvrFPo13PxD1PTb7RtSutI1S2e3vLKZ7e4hf70ciMVZT7ggiq3Xj1rr/jF/yVrxp/2H7/8A9KHrkY/9Yv1FeNKPLJxP1LDVXWowqvdpP70epw/ss/tCXEMdxD8K9ZeOVQ6MBHgqRkH71P8A+GU/2iP+iUa1+Uf/AMVX6veHf+Rf0z/rzh/9AFaFfRLJaL+0/wAD8Pn4q5nGTj7Gn/5N/wDJHzN8Ffip8ePCvgux8K/Er4BeK7650q3W2t7/AE8wMZ40GEEivIuGAAG4E5x0q38O9a+OHj79oaHxV44+GupeFPCul6Ld2mnw3Dq/72R4iWdlPLsE7DAC49z638Uvi94C+DugHxF471pLOFyVt4FG+e5cfwxoOWPv0Hcivm/wp/wUCi8e/FDw/wCBfDXw7a30/WdShsWvL29/eqrtt3CNFwDjtuNbzlToONOpUeltPyvZHi4anjM2p4jG4PARSlGV5XklG/xcvNK1/RO22h9h0V5z8W/ihqHw61bwNp9jplvdr4r8RQ6LO0zMDCjgkuuOpGO/Fd/JfWcN1DYzXcKXNyrtDC0gDyBcbiqnlsZGcdMivQU1KTit0fG1MNUo0oVpL3Z3t8nZ/iT0UVn2PiDQdUvr3S9M1uwvL3TWVL23guUkltmOcCRFJKE4OAwHSqOc0KKKKACiiigAoqtfalp2mWst9qWoW1pbQ4Ek08qoiZIA3MxAGSQOfUVZoAKKKKACiiigAooooAKKKKACiiigAooooAKKKKACiiigAooooA/On/go5/yV/Qv+xfj/APR81fJ9fWH/AAUc/wCSv6F/2L8f/o+avk+vjsw/3mfqf1HwX/yIcL/h/Vn2v/wTR/5C/jz/AK9rD/0Kavu+vhD/AIJo/wDIX8ef9e1h/wChTV9319Dlf+6x+f5n4j4h/wDJRV/+3P8A0iJ+NPxi/wCSteNP+w/f/wDpQ9cjH/rF+orrvjF/yVrxp/2H7/8A9KHrkY/9Yv1FfK1P4j9T+isB/ulL/DH8kftp4d/5F/TP+vOH/wBAFWNQvrXTLG51K9lEVvaQvPM7dFRVJYn6AGq/h3/kX9M/684f/QBXK/HZmT4K+OmRipHh6/wR/wBcHr7eUuWHN2R/JVKl7fFRpP7Urfez8qfjt8YNd+NXxE1Hxdq1xJ9k8xodNtS3y21qCdigdASOWPck1L+zd/yXvwD/ANh60/8ARgrzevSP2bv+S9+Af+w9af8AowV8ZTnKpWUpbtr8z+oMXhqWDyuph6KtGNOSS8uVn6IftQf8jN8G/wDse7T/ANBatH4yatNoPxc8B65bRpJNp3h7xXdxq+drNHb2zAHHOMis79qD/kZvg3/2Pdp/6C1el+NPhnpPjbWtO1zUL66gm03TdU02NYdu1kvo0jkY5B5URgj6nOa+upfxany/I/nDMP8AkW4P0n/6WzyvwR8WvjdqHh34beK/GNv4PgtvidDHBBa2NtcNJpNzNYS3Vu7u0uLhD5RDoFjI3DDHGTzHwT17x34L+GunW8LeF77xL468caxpNhdLpktukTpfahNcT3R81nnCpBKY0BU8qhbq1e4Wnwj0Wz8N/D7w0mpXjQfDuW0msZDt3XBt7OS1XzeMcrKWOMcgdqqL8D/DsXgq08H2usapay6ZrN1r+m6pA8a3dleTXM05dCVKEf6RJGVZSGRirA5NdB4hxHjz4z/FH4Y2fiLQdS0vw/4g8QWMGj3mj3MSy2VrexXuopZNHNGXkaJ43bO4MwIZTjgitK98W/H2X4jW3wx0ubwSlzH4a/t6/wBVlsLpoVla6kijt44BOGIYIMuX42sdp3BRr3vwC0zWrXVJvE3i7WdY1rV7jS5LjVLhYUdIbC7W6gt4oo0WOOPzFYnC7iXYknjHaR+DrKPx9P8AEAXUxu59Hi0doOPLEcc0kobpncTIR1xgCgDxrwh8dviVe6L4H+I3i7S/Dlp4Z8bakdKGm2Yme8sGMczRzmdm2Shmt2ynlrtV1+YkHM938XPjPb+C/C/xWj0nwrJoHirVtJt10spOLuxsL+6iiinafzNksgSZWaMRqAW4Ztvzdtp/wP0DT/BvgrwWuqXstp4J1SLVLWRwm64dBMAknGNp89s49BWLcfs5W11p2j+FpviL4i/4RTw9qlnq2laMogVYXtrhZoYXm2eZJChQBUJ4GMk7RgA8q8P33jDwr4W+PmueLNQ0DxXZ2fjTy/7Nu9FKwSTGHTvnYNM4KhWXCY4Zd2ecV6zN40+LPiibxbrHw/Hhu30vwpf3GmW1lqVtNJNq09uqmfMySKLZd5aNTsk5UseCBV7VfgLo+p/8JnaL4o1i30vxxdJqGoaeggMcd4ogBnjcx+YCVtowVLFeWIGTU2ufBWPUtQ12TRfH3iPw/pviqTzta07T2g8u4kMaxySRySRtJAzoqqxjYZxkYbLUAcF4d+M/xi+KV54o1b4b6f4V07w9oFhp2oWb6vDPLcag91p0N4bdvLkUQbRLgy4f7y4Q7ST7V4D8VQ+OvBHh/wAaW1s9vFr2mW2pJC5y0YmiWQKT3I3Y/Csvwt8LvD/g9/Ea6I0sFt4i+zBrZQojtUgs4rREiAHQRwqec85rW8EeFbPwN4N0PwXp9xNcWug6db6bDLNjfIkMaorNgAZIXJxQBt0UUUAFFFFABRRRQAUUUUAFFFFABRRRQAUUUUAFFFFAH50/8FHP+Sv6F/2L8f8A6Pmr5Pr7a/4KReBr/wDtLwv8RreF3szbvpN046RuGMkefTcGk/75r4lr4/MYuOKnc/p/getCtkGH5Heyafqmz7X/AOCaP/IX8ef9e1h/6FNX3fXwh/wTR/5C/jz/AK9rD/0Kavu+voMr/wB1j8/zPxXxD/5KKv8A9uf+kRPxp+MX/JWvGn/Yfv8A/wBKHrkY/wDWL9RXXfGL/krXjT/sP3//AKUPXIx/6xfqK+VqfxH6n9FYD/dKX+GP5I/bTw7/AMi/pn/XnD/6AK5T48f8kU8d/wDYvX//AKIeur8O/wDIv6Z/15w/+gCuU+PH/JFPHf8A2L1//wCiHr7Wp/Dfofyfg/8Af6f+Nf8ApR+M9ekfs3f8l78A/wDYetP/AEYK83r0j9m7/kvfgH/sPWn/AKMFfF0f4kfVH9RZp/uNb/BL/wBJZ+iH7UH/ACM3wb/7Hu0/9Bar37U3h2SH4ZeIvHml+KvFOkatpdjGLZtL126tIVPnKNxijcIzYYjJGenoKo/tQf8AIzfBv/se7T/0Fq9H+MngnUPiN8Mte8E6TdW9vd6rbrDFLcZ8tSJFb5toJ6Kegr7Gl/FqfL8j+acw/wCRbg/Sf/pbMq+1PSfgza6d4b0W28UeKtX8R3ki6fp9xqz3lxIUjDSv513LtiiRACSWAywABZgDT/4X/pa2MtnN4N11fFkerpoY8M/uDdyXbwm4TbJ5nkmIwK0vm79oVWB+Ybal+M3wlf4g6h4a8TWOk6Bq2oeGZbkLpuuoxs7u3uEVZULqrmJwY43VwjfdKkYYkclpXwI8W6L9n8ZaDY+C9F8TWGvDVrTSdPt2i037N9kktWtpbhYxLIzJLJJ5pj+ViAE2g56DxCt8TvjZrlnN4KkTwT4t0zWLPxtb6df+H4vLee+SfT7xoVSSOQwyxM6qSxfahjJfbsrb1T9pyy0O3Sx1b4ZeKofEza9beHv+Eej+yy3JnubeSe3kWRZTC0TrE4378KVbdjaa0rrwJ8UfFmt+GvEXjLU9DtzofiePVk0yweSSG2tEsbqDaszxq8srvcBiSqqFUADIJaDX/g3r+rfGC2+IcOo2K2MOsaVqLQsW83Za2OoW7j7uMlryMjnore2QCyv7QFjBa6hY6t4G16x8U2Op2ukp4cZreS5up7mNpIDFKkhhMbRpIxcuAoik3Y21z3xO+LmrT+D9a0KbR9X8H+KdLvtBuPIkuI2M1lcapBEZYZoWKuh/eRuMgjOCMMCdPxf8GvFmp/EDVviR4c1fTINTiudHv9Giug5ieW0hvIJ4Z9oyqSRXjKGXcVOGwcYNDxN8G/iF8RJNU8S+MLrQNP1u4j0vT9Ps7Ceae2tbO21KG8mZ5njRpJJTEABsCrsUc5JoA6HV/jsth/burab8P9f1Xwz4YupbXVdbtmgEcbQnFy0ULSCWZYSGDlF6qwXcVIqt4o/aIsNA0/xB4k0rwF4h8Q+GfCyOdV1nTTbGKNkiEriOOSVZJgisu5kUgEkclWxRvvhp8WtN0nxN8PfCGqeG18M+Jry/uI9SvHmF/pUd9I8lyiQKhjnIeWVo2aRMbwGB2/N5f8RLXU/CXgv4i/BzwHrl7pn9rJPa6botz4dnur26ee1RP9BuEcRNDK3V3UmJjKWwAMAHusfxu8OSeE7/AMTf2bqCz2GuL4efTCqfamvJJ0jhULuxiRZYpVOf9W4Y969Frwq1+GsuoftHWuubbuHSNC0Ky1PULdo8W1zrm2a2tpkbozx2xmD/AFtz/CK91oAKKKKACiiigAooooAKKKKACiiigAooooAKKKKACiiigDA8deB/DvxG8K6h4N8VWK3WnajF5ci/xKequp7MpwQfUV+afxm/Y5+K3wv1K4n0bRrrxNoG4tBfafCZJETkgSxLllIHUgFfftX6l0Vx4vBU8Wve0a6n1HDfFuO4ak1QtKnLeL2v3XZ/00fC3/BNuzvLPWvHsd5azQOLexBWSMqQd03Y1900xYoo2Z0jVWb7xC4J+tPrTC0Pq1JU73scPEOcf29mE8e4cnNbS99klvZdux+NPxjBHxa8aAjB/t+//wDSh65GP/WL9RXtv7ZHw/vvAnx31+WWArZeIJTq9nJtwrrLy4Husm4H8PWvEo/9Yv1FfH14uFWUX3P6eyfEU8Xl1CtTd04R/I/bTw7/AMi/pn/XnD/6AK5T48f8kU8d/wDYvX//AKIeur8O/wDIv6Z/15w/+gCuU+PH/JFPHf8A2L1//wCiHr7Op/Dfofytg/8Af6f+Nf8ApR+M9ekfs3f8l78A/wDYetP/AEYK83r0j9m7/kvfgH/sPWn/AKMFfF0f4kfVH9RZp/uNb/BL/wBJZ+iH7UH/ACM3wb/7Hu0/9Bau98Z+P7zwv8SvCHhuSS2i0fV9P1q91GaVSWjFpHA6spB4AEj54OcCuC/ag/5Gb4N/9j3af+gtWz8afCfiPX/GnhzUNG0e4u7a08N+KLWaSMZCTXFtAsKH3dlYD6V9jS/i1Pl+R/NOYf8AItwfpP8A9LZ0vhL48fCHx1fW2n+E/HenajLewvcWbR71iukRdzmGVlCSlBywRiV53AYNMj+O3wzvLW6m0nX5b54LOW/gSDT7lzewx4DSWoEf+lKCy5MO8AEHoa86sPh34is/hL8AtBtfCJF34YfTxqVmyBBaKNFuYZVkx91TJIqNju1QfDHQvGOma94b0PQfDfjDSdAs9PuLbUtH8RpBcWWinyCsaafeHM8n7zagAZ4zEWzsIAroPEOl8A/HVfH3gPwD48/tGLRRriGTUtNudDvDNeuLF7h4bIMFY7dpcOFkDqjKuSavfCP9oLw38RvDVpq+qCfSbvUPEF7oNpDc6ddWy3E0U9yIlQzIu5jDbMzY4VgynB4rjfh74a8Yf8I98C9F1DwZrGnXHgK8ay1n7VEgRNmj3MHmoysQ8TSOihh13DisqHw7460fwv4ct2+H2vXFx8P/AIjX/iG8hhhjJv7C5uNR2yWfz4mKpdxuU+VsAgAtxQB6V8avj74e+E+lzmFZtR1e1vtJt7izg0+6ufJhvLpIg7+Sjbcp5pTJ+ZkCjJIB6PXPjD8O/DMdi2va81nJqFmNQit3s7g3CW3eaWFUMkKDoWkVQDkHBrxDxJo3xC8eXXxM8X2vw116xtLyfwhNo9rdpHHeahDp18Z7llhL5RsbtqOVY/LwCcVp69pXi60+J+u/ESOH4lafpfi3SNOW1j0DT7OaeKW3Eqta3UU0UjRElw6tkR/O+4qRyAfQ+n6hY6tY2+qaXeQ3dndxLPb3ELh45Y2AKsrDgggggirFcN8EfCt94K+Ffh7w3qVjNZXNrbu0ltNcpPJAZJHk8tnRVQld+DsUKMYXgCu5oAKKKKACiiigAooooAKKKKACiiigAooooAKKKKACiiigAooooAKKKKACiiigDzX47fAnwn8ePCn9g6/utb61Jk07UYlBktpCOeP4kPGV74HQgGvgDxl+xH8fPCWpPDp/hhfENmrZju9NmRty54zGxDg+2D9TX6k0VxYnAUcU+aWj7o+tyDjPM+HqfsKDUqf8stUvSzTX5eRS0OGS30Wwt5kKSR2sSOp6ghACK5H48f8AJFPHf/YvX/8A6Ieu7rivjXY3mpfCDxpp+n2stzdXOg3sUMMKF3kdoWAVVHJJPAArpqL9215Hz+BlfGU5P+ZfmfjDXvv7EPgHUPGnx90TUIYWNj4aLareSbcqu0ERrn1LlcfQ+lU/h3+xr8ePH99DFJ4PuPD9g5HmX2rqYFRc8kRn52PsB+Ir9GPgR8CfCfwG8IDw54eBuby5Il1HUZFAlupcYz/sqOir29ySa+ay/AVKlRVJq0VqfuXGPF2CwWBqYXDVFOrNOPuu/Kno22vLZb3Nn4gfDHSPiJf+F9Q1S+u7d/CusR6zarBtxLKgICvkH5ee2DXY0UV9OopNyXU/BZ16lSnGnJ3jG9l2u7v8QoooqjIKKKKACiiigAooooAKKKKACiiigAooooAKKKKACiiigAooooAKKKKACiiigAooooAKKKKACiiigAooooAKKKKACiiigAooooAKKKKACiiigAooooAKKKKACiiigAooooAKKKKACiiigAooooA//9k=;fillColor=#F2CC8F;strokeColor=#000000;fontColor=#393C56;" parent="1" vertex="1">
          <mxGeometry x="-130" y="-260" width="248.12" height="110" as="geometry" />
        </mxCell>
        <mxCell id="69H0QgB0T4vxFsK2x47z-1" value="&lt;font style=&quot;font-size: 11px;&quot;&gt;Fail-Reasons&lt;/font&gt;" style="ellipse;shape=doubleEllipse;margin=3;whiteSpace=wrap;html=1;align=center;labelBackgroundColor=none;fillColor=#F2CC8F;strokeColor=#000000;fontColor=#393C56;" parent="1" vertex="1">
          <mxGeometry x="110" y="900" width="65" height="40" as="geometry" />
        </mxCell>
        <mxCell id="69H0QgB0T4vxFsK2x47z-2" style="rounded=0;orthogonalLoop=1;jettySize=auto;html=1;entryX=0.978;entryY=0.867;entryDx=0;entryDy=0;entryPerimeter=0;endArrow=none;endFill=0;strokeColor=#000000;labelBackgroundColor=none;fontColor=default;" parent="1" source="69H0QgB0T4vxFsK2x47z-1" target="hCMCqNlIO358hZ1XGXYL-25" edge="1">
          <mxGeometry relative="1" as="geometry" />
        </mxCell>
        <mxCell id="69H0QgB0T4vxFsK2x47z-18" style="rounded=0;orthogonalLoop=1;jettySize=auto;html=1;entryX=0.854;entryY=0.029;entryDx=0;entryDy=0;endArrow=none;endFill=0;strokeColor=#000000;entryPerimeter=0;labelBackgroundColor=none;fontColor=default;" parent="1" source="69H0QgB0T4vxFsK2x47z-17" target="sjSc6PjK9yt8h6AtYTrf-6" edge="1">
          <mxGeometry relative="1" as="geometry" />
        </mxCell>
        <mxCell id="69H0QgB0T4vxFsK2x47z-17" value="&lt;span style=&quot;font-size: 11px;&quot;&gt;Exam-Level&lt;br&gt;&lt;/span&gt;" style="ellipse;whiteSpace=wrap;html=1;labelBackgroundColor=none;fillColor=#F8CECC;strokeColor=#000000;fontColor=#393C56;" parent="1" vertex="1">
          <mxGeometry x="500" y="400" width="50" height="35" as="geometry" />
        </mxCell>
        <mxCell id="jm__uK6akbbkzCXGUeMK-19" value="&lt;font style=&quot;font-size: 11px;&quot;&gt;C-Name&lt;/font&gt;" style="ellipse;whiteSpace=wrap;html=1;labelBackgroundColor=none;fillColor=#F8CECC;strokeColor=#000000;fontColor=#393C56;" vertex="1" parent="1">
          <mxGeometry x="470" y="960" width="60" height="40" as="geometry" />
        </mxCell>
        <mxCell id="jm__uK6akbbkzCXGUeMK-20" value="&lt;font style=&quot;font-size: 11px;&quot;&gt;&lt;u&gt;C-ID&lt;/u&gt;&lt;/font&gt;" style="ellipse;whiteSpace=wrap;html=1;labelBackgroundColor=none;fillColor=#F8CECC;strokeColor=#000000;fontColor=#393C56;" vertex="1" parent="1">
          <mxGeometry x="530" y="940" width="60" height="40" as="geometry" />
        </mxCell>
        <mxCell id="jm__uK6akbbkzCXGUeMK-21" value="&lt;font style=&quot;font-size: 11px;&quot;&gt;C-Location&lt;/font&gt;" style="ellipse;whiteSpace=wrap;html=1;labelBackgroundColor=none;fillColor=#F8CECC;strokeColor=#000000;fontColor=#393C56;" vertex="1" parent="1">
          <mxGeometry x="410" y="940" width="60" height="40" as="geometry" />
        </mxCell>
        <mxCell id="jm__uK6akbbkzCXGUeMK-22" value="&lt;font style=&quot;font-size: 11px;&quot;&gt;Fail-Reasons&lt;/font&gt;" style="ellipse;shape=doubleEllipse;margin=3;whiteSpace=wrap;html=1;align=center;labelBackgroundColor=none;fillColor=#F8CECC;strokeColor=#000000;fontColor=#393C56;" vertex="1" parent="1">
          <mxGeometry x="110" y="900" width="65" height="40" as="geometry" />
        </mxCell>
        <mxCell id="jm__uK6akbbkzCXGUeMK-23" value="&lt;font style=&quot;font-size: 11px;&quot;&gt;Salary&lt;/font&gt;" style="ellipse;whiteSpace=wrap;html=1;labelBackgroundColor=none;fillColor=#F8CECC;strokeColor=#000000;fontColor=#393C56;" vertex="1" parent="1">
          <mxGeometry x="110" y="950" width="50" height="40" as="geometry" />
        </mxCell>
        <mxCell id="jm__uK6akbbkzCXGUeMK-24" value="&lt;font style=&quot;font-size: 11px;&quot;&gt;Job-Type&lt;/font&gt;" style="ellipse;whiteSpace=wrap;html=1;labelBackgroundColor=none;fillColor=#F8CECC;strokeColor=#000000;fontColor=#393C56;" vertex="1" parent="1">
          <mxGeometry x="70" y="990" width="60" height="40" as="geometry" />
        </mxCell>
        <mxCell id="jm__uK6akbbkzCXGUeMK-25" value="&lt;font style=&quot;font-size: 11px;&quot;&gt;Job-Title&lt;/font&gt;" style="ellipse;whiteSpace=wrap;html=1;labelBackgroundColor=none;fillColor=#F8CECC;strokeColor=#000000;fontColor=#393C56;" vertex="1" parent="1">
          <mxGeometry x="10" y="1010" width="60" height="40" as="geometry" />
        </mxCell>
        <mxCell id="jm__uK6akbbkzCXGUeMK-26" value="&lt;span style=&quot;font-size: 11px;&quot;&gt;Hired-&lt;br&gt;Date&lt;br&gt;&lt;/span&gt;" style="ellipse;whiteSpace=wrap;html=1;labelBackgroundColor=none;fillColor=#F8CECC;strokeColor=#000000;fontColor=#393C56;" vertex="1" parent="1">
          <mxGeometry x="-50" y="990" width="60" height="40" as="geometry" />
        </mxCell>
        <mxCell id="jm__uK6akbbkzCXGUeMK-27" value="&lt;font style=&quot;font-size: 11px;&quot;&gt;Grad-Certfication&lt;/font&gt;" style="ellipse;whiteSpace=wrap;html=1;labelBackgroundColor=none;fillColor=#F8CECC;strokeColor=#000000;fontColor=#393C56;" vertex="1" parent="1">
          <mxGeometry x="-90" y="940" width="70" height="45" as="geometry" />
        </mxCell>
        <mxCell id="jm__uK6akbbkzCXGUeMK-28" value="&lt;font size=&quot;1&quot; style=&quot;&quot;&gt;&lt;u style=&quot;font-size: 11px;&quot;&gt;Grad-ID&lt;/u&gt;&lt;/font&gt;" style="ellipse;whiteSpace=wrap;html=1;labelBackgroundColor=none;fillColor=#F8CECC;strokeColor=#000000;fontColor=#393C56;" vertex="1" parent="1">
          <mxGeometry x="-90" y="890" width="60" height="40" as="geometry" />
        </mxCell>
        <mxCell id="jm__uK6akbbkzCXGUeMK-29" value="&lt;font style=&quot;font-size: 11px;&quot;&gt;&lt;u&gt;Round-ID&lt;/u&gt;&lt;/font&gt;" style="ellipse;whiteSpace=wrap;html=1;labelBackgroundColor=none;fillColor=#F8CECC;strokeColor=#000000;fontColor=#393C56;" vertex="1" parent="1">
          <mxGeometry x="810" y="950" width="60" height="40" as="geometry" />
        </mxCell>
        <mxCell id="jm__uK6akbbkzCXGUeMK-30" value="&lt;font style=&quot;font-size: 11px;&quot;&gt;Round-No&lt;/font&gt;" style="ellipse;whiteSpace=wrap;html=1;labelBackgroundColor=none;fillColor=#F8CECC;strokeColor=#000000;fontColor=#393C56;" vertex="1" parent="1">
          <mxGeometry x="880" y="950" width="60" height="40" as="geometry" />
        </mxCell>
        <mxCell id="jm__uK6akbbkzCXGUeMK-31" value="&lt;span style=&quot;font-size: 11px;&quot;&gt;&lt;u&gt;Cr-ID&lt;/u&gt;&lt;/span&gt;" style="ellipse;whiteSpace=wrap;html=1;labelBackgroundColor=none;fillColor=#F8CECC;strokeColor=#000000;fontColor=#393C56;" vertex="1" parent="1">
          <mxGeometry x="650" y="730" width="60" height="40" as="geometry" />
        </mxCell>
        <mxCell id="jm__uK6akbbkzCXGUeMK-32" value="&lt;font style=&quot;font-size: 11px;&quot;&gt;Cr-Name&lt;/font&gt;" style="ellipse;whiteSpace=wrap;html=1;labelBackgroundColor=none;fillColor=#F8CECC;strokeColor=#000000;fontColor=#393C56;" vertex="1" parent="1">
          <mxGeometry x="640" y="780" width="60" height="40" as="geometry" />
        </mxCell>
        <mxCell id="jm__uK6akbbkzCXGUeMK-33" value="&lt;font style=&quot;font-size: 11px;&quot;&gt;Acquired-Date&lt;/font&gt;" style="ellipse;whiteSpace=wrap;html=1;labelBackgroundColor=none;fillColor=#F8CECC;strokeColor=#000000;fontColor=#393C56;" vertex="1" parent="1">
          <mxGeometry x="700" y="800" width="55" height="40" as="geometry" />
        </mxCell>
        <mxCell id="jm__uK6akbbkzCXGUeMK-34" value="&lt;font style=&quot;font-size: 11px;&quot;&gt;Provider-Name&lt;/font&gt;" style="ellipse;whiteSpace=wrap;html=1;labelBackgroundColor=none;fillColor=#F8CECC;strokeColor=#000000;fontColor=#393C56;" vertex="1" parent="1">
          <mxGeometry x="760" y="800" width="60" height="40" as="geometry" />
        </mxCell>
        <mxCell id="jm__uK6akbbkzCXGUeMK-35" value="&lt;font style=&quot;font-size: 11px;&quot;&gt;Grade&lt;/font&gt;" style="ellipse;whiteSpace=wrap;html=1;dashed=1;labelBackgroundColor=none;fillColor=#F8CECC;strokeColor=#000000;fontColor=#393C56;" vertex="1" parent="1">
          <mxGeometry x="470" y="740" width="60" height="40" as="geometry" />
        </mxCell>
        <mxCell id="jm__uK6akbbkzCXGUeMK-36" value="&lt;font style=&quot;font-size: 11px;&quot;&gt;St-Answer&lt;/font&gt;" style="ellipse;whiteSpace=wrap;html=1;labelBackgroundColor=none;fillColor=#F8CECC;strokeColor=#000000;fontColor=#393C56;" vertex="1" parent="1">
          <mxGeometry x="410" y="740" width="60" height="40" as="geometry" />
        </mxCell>
      </root>
    </mxGraphModel>
  </diagram>
</mxfile>
